%TF.GenerationSoftware,KiCad,Pcbnew,(5.1.5-0-10_14)*%
%TF.CreationDate,2020-09-17T17:23:34+02:00*%
%TF.ProjectId,power-routing,706f7765-722d-4726-9f75-74696e672e6b,rev?*%
%TF.SameCoordinates,Original*%
%TF.FileFunction,Legend,Top*%
%TF.FilePolarity,Positive*%
%FSLAX46Y46*%
G04 Gerber Fmt 4.6, Leading zero omitted, Abs format (unit mm)*
G04 Created by KiCad (PCBNEW (5.1.5-0-10_14)) date 2020-09-17 17:23:34*
%MOMM*%
%LPD*%
G04 APERTURE LIST*
%ADD10C,0.120000*%
%ADD11C,0.150000*%
%ADD12C,0.050000*%
%ADD13C,0.127000*%
%ADD14C,0.152400*%
G04 APERTURE END LIST*
D10*
X218750000Y-100050000D02*
X218750000Y-100625000D01*
X223800000Y-100050000D02*
X218750000Y-100050000D01*
D11*
X215700000Y-102363095D02*
X215747619Y-102267857D01*
X215747619Y-102125000D01*
X215700000Y-101982142D01*
X215604761Y-101886904D01*
X215509523Y-101839285D01*
X215319047Y-101791666D01*
X215176190Y-101791666D01*
X214985714Y-101839285D01*
X214890476Y-101886904D01*
X214795238Y-101982142D01*
X214747619Y-102125000D01*
X214747619Y-102220238D01*
X214795238Y-102363095D01*
X214842857Y-102410714D01*
X215176190Y-102410714D01*
X215176190Y-102220238D01*
X214747619Y-102839285D02*
X215747619Y-102839285D01*
X214747619Y-103410714D01*
X215747619Y-103410714D01*
X214747619Y-103886904D02*
X215747619Y-103886904D01*
X215747619Y-104125000D01*
X215700000Y-104267857D01*
X215604761Y-104363095D01*
X215509523Y-104410714D01*
X215319047Y-104458333D01*
X215176190Y-104458333D01*
X214985714Y-104410714D01*
X214890476Y-104363095D01*
X214795238Y-104267857D01*
X214747619Y-104125000D01*
X214747619Y-103886904D01*
X219197619Y-101016666D02*
X218197619Y-101350000D01*
X219197619Y-101683333D01*
X218721428Y-102350000D02*
X218673809Y-102492857D01*
X218626190Y-102540476D01*
X218530952Y-102588095D01*
X218388095Y-102588095D01*
X218292857Y-102540476D01*
X218245238Y-102492857D01*
X218197619Y-102397619D01*
X218197619Y-102016666D01*
X219197619Y-102016666D01*
X219197619Y-102350000D01*
X219150000Y-102445238D01*
X219102380Y-102492857D01*
X219007142Y-102540476D01*
X218911904Y-102540476D01*
X218816666Y-102492857D01*
X218769047Y-102445238D01*
X218721428Y-102350000D01*
X218721428Y-102016666D01*
X219197619Y-103016666D02*
X218388095Y-103016666D01*
X218292857Y-103064285D01*
X218245238Y-103111904D01*
X218197619Y-103207142D01*
X218197619Y-103397619D01*
X218245238Y-103492857D01*
X218292857Y-103540476D01*
X218388095Y-103588095D01*
X219197619Y-103588095D01*
X218245238Y-104016666D02*
X218197619Y-104159523D01*
X218197619Y-104397619D01*
X218245238Y-104492857D01*
X218292857Y-104540476D01*
X218388095Y-104588095D01*
X218483333Y-104588095D01*
X218578571Y-104540476D01*
X218626190Y-104492857D01*
X218673809Y-104397619D01*
X218721428Y-104207142D01*
X218769047Y-104111904D01*
X218816666Y-104064285D01*
X218911904Y-104016666D01*
X219007142Y-104016666D01*
X219102380Y-104064285D01*
X219150000Y-104111904D01*
X219197619Y-104207142D01*
X219197619Y-104445238D01*
X219150000Y-104588095D01*
X221838095Y-89375000D02*
X221742857Y-89327380D01*
X221600000Y-89327380D01*
X221457142Y-89375000D01*
X221361904Y-89470238D01*
X221314285Y-89565476D01*
X221266666Y-89755952D01*
X221266666Y-89898809D01*
X221314285Y-90089285D01*
X221361904Y-90184523D01*
X221457142Y-90279761D01*
X221600000Y-90327380D01*
X221695238Y-90327380D01*
X221838095Y-90279761D01*
X221885714Y-90232142D01*
X221885714Y-89898809D01*
X221695238Y-89898809D01*
X222314285Y-90327380D02*
X222314285Y-89327380D01*
X222885714Y-90327380D01*
X222885714Y-89327380D01*
X223361904Y-90327380D02*
X223361904Y-89327380D01*
X223600000Y-89327380D01*
X223742857Y-89375000D01*
X223838095Y-89470238D01*
X223885714Y-89565476D01*
X223933333Y-89755952D01*
X223933333Y-89898809D01*
X223885714Y-90089285D01*
X223838095Y-90184523D01*
X223742857Y-90279761D01*
X223600000Y-90327380D01*
X223361904Y-90327380D01*
D12*
X189100000Y-109850000D02*
X189100000Y-77850000D01*
X224700000Y-113450000D02*
X192700000Y-113450000D01*
X228300000Y-77850000D02*
X228300000Y-109850000D01*
X192700000Y-74250000D02*
X224700000Y-74250000D01*
X189100000Y-77850000D02*
G75*
G02X192700000Y-74250000I3600000J0D01*
G01*
X192700000Y-113450000D02*
G75*
G02X189100000Y-109850000I0J3600000D01*
G01*
X228300000Y-109850000D02*
G75*
G02X224700000Y-113450000I-3600000J0D01*
G01*
X224700000Y-74250000D02*
G75*
G02X228300000Y-77850000I0J-3600000D01*
G01*
X225818034Y-109850000D02*
G75*
G03X225818034Y-109850000I-1118034J0D01*
G01*
X193818034Y-109850000D02*
G75*
G03X193818034Y-109850000I-1118034J0D01*
G01*
X225818034Y-77850000D02*
G75*
G03X225818034Y-77850000I-1118034J0D01*
G01*
X193818034Y-77850000D02*
G75*
G03X193818034Y-77850000I-1118034J0D01*
G01*
D13*
X213616000Y-95507000D02*
X211584000Y-95507000D01*
X213616000Y-91443000D02*
X213616000Y-95507000D01*
X211584000Y-91443000D02*
X213616000Y-91443000D01*
X211584000Y-95507000D02*
X211584000Y-91443000D01*
X207734000Y-91443000D02*
X209766000Y-91443000D01*
X207734000Y-95507000D02*
X207734000Y-91443000D01*
X209766000Y-95507000D02*
X207734000Y-95507000D01*
X209766000Y-91443000D02*
X209766000Y-95507000D01*
X211150000Y-82502040D02*
X221150000Y-82502040D01*
X211150000Y-82502040D02*
X211150000Y-84000000D01*
X221150000Y-82502040D02*
X221150000Y-84000000D01*
X222204500Y-84000000D02*
X221150000Y-84000000D01*
X210051460Y-78537100D02*
X210051460Y-84000640D01*
X210097180Y-84000000D02*
X211150000Y-84000000D01*
X222248540Y-78537100D02*
X222248540Y-84000000D01*
X219548520Y-75801520D02*
X219548520Y-74800760D01*
X210051460Y-74800760D02*
X212751480Y-74800760D01*
X212751480Y-74800760D02*
X212751480Y-75801520D01*
X212751480Y-75801520D02*
X219548520Y-75801520D01*
X219548520Y-74800760D02*
X222149480Y-74800760D01*
X196200000Y-82502040D02*
X206200000Y-82502040D01*
X196200000Y-82502040D02*
X196200000Y-84000000D01*
X206200000Y-82502040D02*
X206200000Y-84000000D01*
X207254500Y-84000000D02*
X206200000Y-84000000D01*
X195101460Y-78537100D02*
X195101460Y-84000640D01*
X195147180Y-84000000D02*
X196200000Y-84000000D01*
X207298540Y-78537100D02*
X207298540Y-84000000D01*
X204598520Y-75801520D02*
X204598520Y-74800760D01*
X195101460Y-74800760D02*
X197801480Y-74800760D01*
X197801480Y-74800760D02*
X197801480Y-75801520D01*
X197801480Y-75801520D02*
X204598520Y-75801520D01*
X204598520Y-74800760D02*
X207199480Y-74800760D01*
D11*
X203912680Y-87034440D02*
X189250000Y-87034440D01*
X189250000Y-87034440D02*
X189250000Y-103615560D01*
X203912680Y-103615560D02*
X189250000Y-103615560D01*
X203912680Y-87034440D02*
X203912680Y-103615560D01*
D10*
X213100000Y-113175000D02*
X213500000Y-113175000D01*
X213100000Y-112535000D02*
X213100000Y-113175000D01*
X217505000Y-109316000D02*
X217376000Y-109444000D01*
X219720000Y-107100000D02*
X219626000Y-107194000D01*
X217675000Y-109556000D02*
X217581000Y-109649000D01*
X219925000Y-107306000D02*
X219796000Y-107434000D01*
X220460000Y-105215000D02*
X220460000Y-112935000D01*
X213340000Y-105215000D02*
X213340000Y-112935000D01*
X213340000Y-112935000D02*
X220460000Y-112935000D01*
X213340000Y-105215000D02*
X220460000Y-105215000D01*
X213340000Y-111375000D02*
X220460000Y-111375000D01*
X213340000Y-112475000D02*
X220460000Y-112475000D01*
X220330000Y-108375000D02*
G75*
G03X220330000Y-108375000I-1680000J0D01*
G01*
X215178674Y-110055099D02*
G75*
G02X214284000Y-109815000I-28674J1680099D01*
G01*
X213724642Y-109264894D02*
G75*
G02X213710000Y-107509000I1425358J889894D01*
G01*
X214260106Y-106949642D02*
G75*
G02X216016000Y-106935000I889894J-1425358D01*
G01*
X216575505Y-107484807D02*
G75*
G02X216575000Y-109266000I-1425505J-890193D01*
G01*
X216040264Y-109799721D02*
G75*
G02X215150000Y-110055000I-890264J1424721D01*
G01*
X204325000Y-113175000D02*
X204725000Y-113175000D01*
X204325000Y-112535000D02*
X204325000Y-113175000D01*
X208730000Y-109316000D02*
X208601000Y-109444000D01*
X210945000Y-107100000D02*
X210851000Y-107194000D01*
X208900000Y-109556000D02*
X208806000Y-109649000D01*
X211150000Y-107306000D02*
X211021000Y-107434000D01*
X211685000Y-105215000D02*
X211685000Y-112935000D01*
X204565000Y-105215000D02*
X204565000Y-112935000D01*
X204565000Y-112935000D02*
X211685000Y-112935000D01*
X204565000Y-105215000D02*
X211685000Y-105215000D01*
X204565000Y-111375000D02*
X211685000Y-111375000D01*
X204565000Y-112475000D02*
X211685000Y-112475000D01*
X211555000Y-108375000D02*
G75*
G03X211555000Y-108375000I-1680000J0D01*
G01*
X206403674Y-110055099D02*
G75*
G02X205509000Y-109815000I-28674J1680099D01*
G01*
X204949642Y-109264894D02*
G75*
G02X204935000Y-107509000I1425358J889894D01*
G01*
X205485106Y-106949642D02*
G75*
G02X207241000Y-106935000I889894J-1425358D01*
G01*
X207800505Y-107484807D02*
G75*
G02X207800000Y-109266000I-1425505J-890193D01*
G01*
X207265264Y-109799721D02*
G75*
G02X206375000Y-110055000I-890264J1424721D01*
G01*
X195550000Y-113175000D02*
X195950000Y-113175000D01*
X195550000Y-112535000D02*
X195550000Y-113175000D01*
X199955000Y-109316000D02*
X199826000Y-109444000D01*
X202170000Y-107100000D02*
X202076000Y-107194000D01*
X200125000Y-109556000D02*
X200031000Y-109649000D01*
X202375000Y-107306000D02*
X202246000Y-107434000D01*
X202910000Y-105215000D02*
X202910000Y-112935000D01*
X195790000Y-105215000D02*
X195790000Y-112935000D01*
X195790000Y-112935000D02*
X202910000Y-112935000D01*
X195790000Y-105215000D02*
X202910000Y-105215000D01*
X195790000Y-111375000D02*
X202910000Y-111375000D01*
X195790000Y-112475000D02*
X202910000Y-112475000D01*
X202780000Y-108375000D02*
G75*
G03X202780000Y-108375000I-1680000J0D01*
G01*
X197628674Y-110055099D02*
G75*
G02X196734000Y-109815000I-28674J1680099D01*
G01*
X196174642Y-109264894D02*
G75*
G02X196160000Y-107509000I1425358J889894D01*
G01*
X196710106Y-106949642D02*
G75*
G02X198466000Y-106935000I889894J-1425358D01*
G01*
X199025505Y-107484807D02*
G75*
G02X199025000Y-109266000I-1425505J-890193D01*
G01*
X198490264Y-109799721D02*
G75*
G02X197600000Y-110055000I-890264J1424721D01*
G01*
X224720000Y-88520000D02*
X226050000Y-88520000D01*
X224720000Y-89850000D02*
X224720000Y-88520000D01*
X224720000Y-91120000D02*
X227380000Y-91120000D01*
X227380000Y-91120000D02*
X227380000Y-101340000D01*
X224720000Y-91120000D02*
X224720000Y-101340000D01*
X224720000Y-101340000D02*
X227380000Y-101340000D01*
D14*
X212505666Y-90759619D02*
X212167000Y-90275809D01*
X211925095Y-90759619D02*
X211925095Y-89743619D01*
X212312142Y-89743619D01*
X212408904Y-89792000D01*
X212457285Y-89840380D01*
X212505666Y-89937142D01*
X212505666Y-90082285D01*
X212457285Y-90179047D01*
X212408904Y-90227428D01*
X212312142Y-90275809D01*
X211925095Y-90275809D01*
X213473285Y-90759619D02*
X212892714Y-90759619D01*
X213183000Y-90759619D02*
X213183000Y-89743619D01*
X213086238Y-89888761D01*
X212989476Y-89985523D01*
X212892714Y-90033904D01*
X214290380Y-95263476D02*
X214242000Y-95215095D01*
X214193619Y-95118333D01*
X214193619Y-94876428D01*
X214242000Y-94779666D01*
X214290380Y-94731285D01*
X214387142Y-94682904D01*
X214483904Y-94682904D01*
X214629047Y-94731285D01*
X215209619Y-95311857D01*
X215209619Y-94682904D01*
X214290380Y-94295857D02*
X214242000Y-94247476D01*
X214193619Y-94150714D01*
X214193619Y-93908809D01*
X214242000Y-93812047D01*
X214290380Y-93763666D01*
X214387142Y-93715285D01*
X214483904Y-93715285D01*
X214629047Y-93763666D01*
X215209619Y-94344238D01*
X215209619Y-93715285D01*
X214193619Y-93086333D02*
X214193619Y-92989571D01*
X214242000Y-92892809D01*
X214290380Y-92844428D01*
X214387142Y-92796047D01*
X214580666Y-92747666D01*
X214822571Y-92747666D01*
X215016095Y-92796047D01*
X215112857Y-92844428D01*
X215161238Y-92892809D01*
X215209619Y-92989571D01*
X215209619Y-93086333D01*
X215161238Y-93183095D01*
X215112857Y-93231476D01*
X215016095Y-93279857D01*
X214822571Y-93328238D01*
X214580666Y-93328238D01*
X214387142Y-93279857D01*
X214290380Y-93231476D01*
X214242000Y-93183095D01*
X214193619Y-93086333D01*
X215209619Y-92360619D02*
X215209619Y-92118714D01*
X215016095Y-92118714D01*
X214967714Y-92215476D01*
X214870952Y-92312238D01*
X214725809Y-92360619D01*
X214483904Y-92360619D01*
X214338761Y-92312238D01*
X214242000Y-92215476D01*
X214193619Y-92070333D01*
X214193619Y-91876809D01*
X214242000Y-91731666D01*
X214338761Y-91634904D01*
X214483904Y-91586523D01*
X214725809Y-91586523D01*
X214870952Y-91634904D01*
X214967714Y-91731666D01*
X215016095Y-91828428D01*
X215209619Y-91828428D01*
X215209619Y-91586523D01*
X207952523Y-90859619D02*
X207952523Y-89843619D01*
X208291190Y-90569333D01*
X208629857Y-89843619D01*
X208629857Y-90859619D01*
X209645857Y-90859619D02*
X209065285Y-90859619D01*
X209355571Y-90859619D02*
X209355571Y-89843619D01*
X209258809Y-89988761D01*
X209162047Y-90085523D01*
X209065285Y-90133904D01*
X207184619Y-94103142D02*
X206700809Y-94441809D01*
X207184619Y-94683714D02*
X206168619Y-94683714D01*
X206168619Y-94296666D01*
X206217000Y-94199904D01*
X206265380Y-94151523D01*
X206362142Y-94103142D01*
X206507285Y-94103142D01*
X206604047Y-94151523D01*
X206652428Y-94199904D01*
X206700809Y-94296666D01*
X206700809Y-94683714D01*
X206652428Y-93667714D02*
X206652428Y-93329047D01*
X207184619Y-93183904D02*
X207184619Y-93667714D01*
X206168619Y-93667714D01*
X206168619Y-93183904D01*
X207184619Y-92748476D02*
X206168619Y-92748476D01*
X206168619Y-92506571D01*
X206217000Y-92361428D01*
X206313761Y-92264666D01*
X206410523Y-92216285D01*
X206604047Y-92167904D01*
X206749190Y-92167904D01*
X206942714Y-92216285D01*
X207039476Y-92264666D01*
X207136238Y-92361428D01*
X207184619Y-92506571D01*
X207184619Y-92748476D01*
D11*
X213016666Y-76327380D02*
X213016666Y-77041666D01*
X212969047Y-77184523D01*
X212873809Y-77279761D01*
X212730952Y-77327380D01*
X212635714Y-77327380D01*
X213635714Y-76755952D02*
X213540476Y-76708333D01*
X213492857Y-76660714D01*
X213445238Y-76565476D01*
X213445238Y-76517857D01*
X213492857Y-76422619D01*
X213540476Y-76375000D01*
X213635714Y-76327380D01*
X213826190Y-76327380D01*
X213921428Y-76375000D01*
X213969047Y-76422619D01*
X214016666Y-76517857D01*
X214016666Y-76565476D01*
X213969047Y-76660714D01*
X213921428Y-76708333D01*
X213826190Y-76755952D01*
X213635714Y-76755952D01*
X213540476Y-76803571D01*
X213492857Y-76851190D01*
X213445238Y-76946428D01*
X213445238Y-77136904D01*
X213492857Y-77232142D01*
X213540476Y-77279761D01*
X213635714Y-77327380D01*
X213826190Y-77327380D01*
X213921428Y-77279761D01*
X213969047Y-77232142D01*
X214016666Y-77136904D01*
X214016666Y-76946428D01*
X213969047Y-76851190D01*
X213921428Y-76803571D01*
X213826190Y-76755952D01*
X197716666Y-76202380D02*
X197716666Y-76916666D01*
X197669047Y-77059523D01*
X197573809Y-77154761D01*
X197430952Y-77202380D01*
X197335714Y-77202380D01*
X198097619Y-76202380D02*
X198764285Y-76202380D01*
X198335714Y-77202380D01*
M02*
