%TF.GenerationSoftware,KiCad,Pcbnew,(5.1.5-0-10_14)*%
%TF.CreationDate,2020-09-17T17:23:34+02:00*%
%TF.ProjectId,power-routing,706f7765-722d-4726-9f75-74696e672e6b,rev?*%
%TF.SameCoordinates,Original*%
%TF.FileFunction,Soldermask,Top*%
%TF.FilePolarity,Negative*%
%FSLAX46Y46*%
G04 Gerber Fmt 4.6, Leading zero omitted, Abs format (unit mm)*
G04 Created by KiCad (PCBNEW (5.1.5-0-10_14)) date 2020-09-17 17:23:34*
%MOMM*%
%LPD*%
G04 APERTURE LIST*
%ADD10C,0.050000*%
%ADD11C,0.150000*%
G04 APERTURE END LIST*
D10*
X189100000Y-109850000D02*
X189100000Y-77850000D01*
X224700000Y-113450000D02*
X192700000Y-113450000D01*
X228300000Y-77850000D02*
X228300000Y-109850000D01*
X192700000Y-74250000D02*
X224700000Y-74250000D01*
X189100000Y-77850000D02*
G75*
G02X192700000Y-74250000I3600000J0D01*
G01*
X192700000Y-113450000D02*
G75*
G02X189100000Y-109850000I0J3600000D01*
G01*
X228300000Y-109850000D02*
G75*
G02X224700000Y-113450000I-3600000J0D01*
G01*
X224700000Y-74250000D02*
G75*
G02X228300000Y-77850000I0J-3600000D01*
G01*
X225818034Y-109850000D02*
G75*
G03X225818034Y-109850000I-1118034J0D01*
G01*
X193818034Y-109850000D02*
G75*
G03X193818034Y-109850000I-1118034J0D01*
G01*
X225818034Y-77850000D02*
G75*
G03X225818034Y-77850000I-1118034J0D01*
G01*
X193818034Y-77850000D02*
G75*
G03X193818034Y-77850000I-1118034J0D01*
G01*
D11*
G36*
X219014903Y-107172075D02*
G01*
X219242571Y-107266378D01*
X219447466Y-107403285D01*
X219621715Y-107577534D01*
X219758622Y-107782429D01*
X219852925Y-108010097D01*
X219901000Y-108251787D01*
X219901000Y-108498213D01*
X219852925Y-108739903D01*
X219758622Y-108967571D01*
X219621715Y-109172466D01*
X219447466Y-109346715D01*
X219242571Y-109483622D01*
X219242570Y-109483623D01*
X219242569Y-109483623D01*
X219014903Y-109577925D01*
X218773214Y-109626000D01*
X218526786Y-109626000D01*
X218285097Y-109577925D01*
X218057431Y-109483623D01*
X218057430Y-109483623D01*
X218057429Y-109483622D01*
X217852534Y-109346715D01*
X217678285Y-109172466D01*
X217541378Y-108967571D01*
X217447075Y-108739903D01*
X217399000Y-108498213D01*
X217399000Y-108251787D01*
X217447075Y-108010097D01*
X217541378Y-107782429D01*
X217678285Y-107577534D01*
X217852534Y-107403285D01*
X218057429Y-107266378D01*
X218285097Y-107172075D01*
X218526786Y-107124000D01*
X218773214Y-107124000D01*
X219014903Y-107172075D01*
G37*
G36*
X216401000Y-109626000D02*
G01*
X213899000Y-109626000D01*
X213899000Y-107124000D01*
X216401000Y-107124000D01*
X216401000Y-109626000D01*
G37*
G36*
X210239903Y-107172075D02*
G01*
X210467571Y-107266378D01*
X210672466Y-107403285D01*
X210846715Y-107577534D01*
X210983622Y-107782429D01*
X211077925Y-108010097D01*
X211126000Y-108251787D01*
X211126000Y-108498213D01*
X211077925Y-108739903D01*
X210983622Y-108967571D01*
X210846715Y-109172466D01*
X210672466Y-109346715D01*
X210467571Y-109483622D01*
X210467570Y-109483623D01*
X210467569Y-109483623D01*
X210239903Y-109577925D01*
X209998214Y-109626000D01*
X209751786Y-109626000D01*
X209510097Y-109577925D01*
X209282431Y-109483623D01*
X209282430Y-109483623D01*
X209282429Y-109483622D01*
X209077534Y-109346715D01*
X208903285Y-109172466D01*
X208766378Y-108967571D01*
X208672075Y-108739903D01*
X208624000Y-108498213D01*
X208624000Y-108251787D01*
X208672075Y-108010097D01*
X208766378Y-107782429D01*
X208903285Y-107577534D01*
X209077534Y-107403285D01*
X209282429Y-107266378D01*
X209510097Y-107172075D01*
X209751786Y-107124000D01*
X209998214Y-107124000D01*
X210239903Y-107172075D01*
G37*
G36*
X207626000Y-109626000D02*
G01*
X205124000Y-109626000D01*
X205124000Y-107124000D01*
X207626000Y-107124000D01*
X207626000Y-109626000D01*
G37*
G36*
X201464903Y-107172075D02*
G01*
X201692571Y-107266378D01*
X201897466Y-107403285D01*
X202071715Y-107577534D01*
X202208622Y-107782429D01*
X202302925Y-108010097D01*
X202351000Y-108251787D01*
X202351000Y-108498213D01*
X202302925Y-108739903D01*
X202208622Y-108967571D01*
X202071715Y-109172466D01*
X201897466Y-109346715D01*
X201692571Y-109483622D01*
X201692570Y-109483623D01*
X201692569Y-109483623D01*
X201464903Y-109577925D01*
X201223214Y-109626000D01*
X200976786Y-109626000D01*
X200735097Y-109577925D01*
X200507431Y-109483623D01*
X200507430Y-109483623D01*
X200507429Y-109483622D01*
X200302534Y-109346715D01*
X200128285Y-109172466D01*
X199991378Y-108967571D01*
X199897075Y-108739903D01*
X199849000Y-108498213D01*
X199849000Y-108251787D01*
X199897075Y-108010097D01*
X199991378Y-107782429D01*
X200128285Y-107577534D01*
X200302534Y-107403285D01*
X200507429Y-107266378D01*
X200735097Y-107172075D01*
X200976786Y-107124000D01*
X201223214Y-107124000D01*
X201464903Y-107172075D01*
G37*
G36*
X198851000Y-109626000D02*
G01*
X196349000Y-109626000D01*
X196349000Y-107124000D01*
X198851000Y-107124000D01*
X198851000Y-109626000D01*
G37*
G36*
X200552585Y-100373802D02*
G01*
X200702410Y-100403604D01*
X200984674Y-100520521D01*
X201238705Y-100690259D01*
X201454741Y-100906295D01*
X201624479Y-101160326D01*
X201741396Y-101442590D01*
X201801000Y-101742240D01*
X201801000Y-102047760D01*
X201741396Y-102347410D01*
X201624479Y-102629674D01*
X201454741Y-102883705D01*
X201238705Y-103099741D01*
X200984674Y-103269479D01*
X200702410Y-103386396D01*
X200552585Y-103416198D01*
X200402761Y-103446000D01*
X200097239Y-103446000D01*
X199947415Y-103416198D01*
X199797590Y-103386396D01*
X199515326Y-103269479D01*
X199261295Y-103099741D01*
X199045259Y-102883705D01*
X198875521Y-102629674D01*
X198758604Y-102347410D01*
X198699000Y-102047760D01*
X198699000Y-101742240D01*
X198758604Y-101442590D01*
X198875521Y-101160326D01*
X199045259Y-100906295D01*
X199261295Y-100690259D01*
X199515326Y-100520521D01*
X199797590Y-100403604D01*
X199947415Y-100373802D01*
X200097239Y-100344000D01*
X200402761Y-100344000D01*
X200552585Y-100373802D01*
G37*
G36*
X226163512Y-99113927D02*
G01*
X226312812Y-99143624D01*
X226476784Y-99211544D01*
X226624354Y-99310147D01*
X226749853Y-99435646D01*
X226848456Y-99583216D01*
X226916376Y-99747188D01*
X226951000Y-99921259D01*
X226951000Y-100098741D01*
X226916376Y-100272812D01*
X226848456Y-100436784D01*
X226749853Y-100584354D01*
X226624354Y-100709853D01*
X226476784Y-100808456D01*
X226312812Y-100876376D01*
X226163512Y-100906073D01*
X226138742Y-100911000D01*
X225961258Y-100911000D01*
X225936488Y-100906073D01*
X225787188Y-100876376D01*
X225623216Y-100808456D01*
X225475646Y-100709853D01*
X225350147Y-100584354D01*
X225251544Y-100436784D01*
X225183624Y-100272812D01*
X225149000Y-100098741D01*
X225149000Y-99921259D01*
X225183624Y-99747188D01*
X225251544Y-99583216D01*
X225350147Y-99435646D01*
X225475646Y-99310147D01*
X225623216Y-99211544D01*
X225787188Y-99143624D01*
X225936488Y-99113927D01*
X225961258Y-99109000D01*
X226138742Y-99109000D01*
X226163512Y-99113927D01*
G37*
G36*
X203200935Y-98030742D02*
G01*
X203351258Y-98093008D01*
X203486545Y-98183404D01*
X203601596Y-98298455D01*
X203691992Y-98433742D01*
X203754258Y-98584065D01*
X203786000Y-98743646D01*
X203786000Y-98906354D01*
X203754258Y-99065935D01*
X203691992Y-99216258D01*
X203601596Y-99351545D01*
X203486545Y-99466596D01*
X203351258Y-99556992D01*
X203200935Y-99619258D01*
X203041354Y-99651000D01*
X202878646Y-99651000D01*
X202719065Y-99619258D01*
X202568742Y-99556992D01*
X202433455Y-99466596D01*
X202318404Y-99351545D01*
X202228008Y-99216258D01*
X202165742Y-99065935D01*
X202134000Y-98906354D01*
X202134000Y-98743646D01*
X202165742Y-98584065D01*
X202228008Y-98433742D01*
X202318404Y-98298455D01*
X202433455Y-98183404D01*
X202568742Y-98093008D01*
X202719065Y-98030742D01*
X202878646Y-97999000D01*
X203041354Y-97999000D01*
X203200935Y-98030742D01*
G37*
G36*
X226163512Y-96573927D02*
G01*
X226312812Y-96603624D01*
X226476784Y-96671544D01*
X226624354Y-96770147D01*
X226749853Y-96895646D01*
X226848456Y-97043216D01*
X226916376Y-97207188D01*
X226951000Y-97381259D01*
X226951000Y-97558741D01*
X226916376Y-97732812D01*
X226848456Y-97896784D01*
X226749853Y-98044354D01*
X226624354Y-98169853D01*
X226476784Y-98268456D01*
X226312812Y-98336376D01*
X226163512Y-98366073D01*
X226138742Y-98371000D01*
X225961258Y-98371000D01*
X225936488Y-98366073D01*
X225787188Y-98336376D01*
X225623216Y-98268456D01*
X225475646Y-98169853D01*
X225350147Y-98044354D01*
X225251544Y-97896784D01*
X225183624Y-97732812D01*
X225149000Y-97558741D01*
X225149000Y-97381259D01*
X225183624Y-97207188D01*
X225251544Y-97043216D01*
X225350147Y-96895646D01*
X225475646Y-96770147D01*
X225623216Y-96671544D01*
X225787188Y-96603624D01*
X225936488Y-96573927D01*
X225961258Y-96569000D01*
X226138742Y-96569000D01*
X226163512Y-96573927D01*
G37*
G36*
X203200935Y-95530742D02*
G01*
X203351258Y-95593008D01*
X203486545Y-95683404D01*
X203601596Y-95798455D01*
X203691992Y-95933742D01*
X203754258Y-96084065D01*
X203786000Y-96243646D01*
X203786000Y-96406354D01*
X203754258Y-96565935D01*
X203691992Y-96716258D01*
X203601596Y-96851545D01*
X203486545Y-96966596D01*
X203351258Y-97056992D01*
X203200935Y-97119258D01*
X203041354Y-97151000D01*
X202878646Y-97151000D01*
X202719065Y-97119258D01*
X202568742Y-97056992D01*
X202433455Y-96966596D01*
X202318404Y-96851545D01*
X202228008Y-96716258D01*
X202165742Y-96565935D01*
X202134000Y-96406354D01*
X202134000Y-96243646D01*
X202165742Y-96084065D01*
X202228008Y-95933742D01*
X202318404Y-95798455D01*
X202433455Y-95683404D01*
X202568742Y-95593008D01*
X202719065Y-95530742D01*
X202878646Y-95499000D01*
X203041354Y-95499000D01*
X203200935Y-95530742D01*
G37*
G36*
X226163512Y-94033927D02*
G01*
X226312812Y-94063624D01*
X226476784Y-94131544D01*
X226624354Y-94230147D01*
X226749853Y-94355646D01*
X226848456Y-94503216D01*
X226916376Y-94667188D01*
X226951000Y-94841259D01*
X226951000Y-95018741D01*
X226916376Y-95192812D01*
X226848456Y-95356784D01*
X226749853Y-95504354D01*
X226624354Y-95629853D01*
X226476784Y-95728456D01*
X226312812Y-95796376D01*
X226163512Y-95826073D01*
X226138742Y-95831000D01*
X225961258Y-95831000D01*
X225936488Y-95826073D01*
X225787188Y-95796376D01*
X225623216Y-95728456D01*
X225475646Y-95629853D01*
X225350147Y-95504354D01*
X225251544Y-95356784D01*
X225183624Y-95192812D01*
X225149000Y-95018741D01*
X225149000Y-94841259D01*
X225183624Y-94667188D01*
X225251544Y-94503216D01*
X225350147Y-94355646D01*
X225475646Y-94230147D01*
X225623216Y-94131544D01*
X225787188Y-94063624D01*
X225936488Y-94033927D01*
X225961258Y-94029000D01*
X226138742Y-94029000D01*
X226163512Y-94033927D01*
G37*
G36*
X213603500Y-95812000D02*
G01*
X211596500Y-95812000D01*
X211596500Y-94440000D01*
X213603500Y-94440000D01*
X213603500Y-95812000D01*
G37*
G36*
X209753500Y-95812000D02*
G01*
X207746500Y-95812000D01*
X207746500Y-94440000D01*
X209753500Y-94440000D01*
X209753500Y-95812000D01*
G37*
G36*
X203200935Y-93530742D02*
G01*
X203351258Y-93593008D01*
X203486545Y-93683404D01*
X203601596Y-93798455D01*
X203691992Y-93933742D01*
X203754258Y-94084065D01*
X203786000Y-94243646D01*
X203786000Y-94406354D01*
X203754258Y-94565935D01*
X203691992Y-94716258D01*
X203601596Y-94851545D01*
X203486545Y-94966596D01*
X203351258Y-95056992D01*
X203200935Y-95119258D01*
X203041354Y-95151000D01*
X202878646Y-95151000D01*
X202719065Y-95119258D01*
X202568742Y-95056992D01*
X202433455Y-94966596D01*
X202318404Y-94851545D01*
X202228008Y-94716258D01*
X202165742Y-94565935D01*
X202134000Y-94406354D01*
X202134000Y-94243646D01*
X202165742Y-94084065D01*
X202228008Y-93933742D01*
X202318404Y-93798455D01*
X202433455Y-93683404D01*
X202568742Y-93593008D01*
X202719065Y-93530742D01*
X202878646Y-93499000D01*
X203041354Y-93499000D01*
X203200935Y-93530742D01*
G37*
G36*
X226163512Y-91493927D02*
G01*
X226312812Y-91523624D01*
X226476784Y-91591544D01*
X226624354Y-91690147D01*
X226749853Y-91815646D01*
X226848456Y-91963216D01*
X226916376Y-92127188D01*
X226951000Y-92301259D01*
X226951000Y-92478741D01*
X226916376Y-92652812D01*
X226848456Y-92816784D01*
X226749853Y-92964354D01*
X226624354Y-93089853D01*
X226476784Y-93188456D01*
X226312812Y-93256376D01*
X226163512Y-93286073D01*
X226138742Y-93291000D01*
X225961258Y-93291000D01*
X225936488Y-93286073D01*
X225787188Y-93256376D01*
X225623216Y-93188456D01*
X225475646Y-93089853D01*
X225350147Y-92964354D01*
X225251544Y-92816784D01*
X225183624Y-92652812D01*
X225149000Y-92478741D01*
X225149000Y-92301259D01*
X225183624Y-92127188D01*
X225251544Y-91963216D01*
X225350147Y-91815646D01*
X225475646Y-91690147D01*
X225623216Y-91591544D01*
X225787188Y-91523624D01*
X225936488Y-91493927D01*
X225961258Y-91489000D01*
X226138742Y-91489000D01*
X226163512Y-91493927D01*
G37*
G36*
X203200935Y-91030742D02*
G01*
X203351258Y-91093008D01*
X203486545Y-91183404D01*
X203601596Y-91298455D01*
X203691992Y-91433742D01*
X203754258Y-91584065D01*
X203786000Y-91743646D01*
X203786000Y-91906354D01*
X203754258Y-92065935D01*
X203691992Y-92216258D01*
X203601596Y-92351545D01*
X203486545Y-92466596D01*
X203351258Y-92556992D01*
X203200935Y-92619258D01*
X203041354Y-92651000D01*
X202878646Y-92651000D01*
X202719065Y-92619258D01*
X202568742Y-92556992D01*
X202433455Y-92466596D01*
X202318404Y-92351545D01*
X202228008Y-92216258D01*
X202165742Y-92065935D01*
X202134000Y-91906354D01*
X202134000Y-91743646D01*
X202165742Y-91584065D01*
X202228008Y-91433742D01*
X202318404Y-91298455D01*
X202433455Y-91183404D01*
X202568742Y-91093008D01*
X202719065Y-91030742D01*
X202878646Y-90999000D01*
X203041354Y-90999000D01*
X203200935Y-91030742D01*
G37*
G36*
X213603500Y-92510000D02*
G01*
X211596500Y-92510000D01*
X211596500Y-91138000D01*
X213603500Y-91138000D01*
X213603500Y-92510000D01*
G37*
G36*
X209753500Y-92510000D02*
G01*
X207746500Y-92510000D01*
X207746500Y-91138000D01*
X209753500Y-91138000D01*
X209753500Y-92510000D01*
G37*
G36*
X226951000Y-90751000D02*
G01*
X225149000Y-90751000D01*
X225149000Y-88949000D01*
X226951000Y-88949000D01*
X226951000Y-90751000D01*
G37*
G36*
X200552585Y-87233802D02*
G01*
X200702410Y-87263604D01*
X200984674Y-87380521D01*
X201238705Y-87550259D01*
X201454741Y-87766295D01*
X201624479Y-88020326D01*
X201741396Y-88302590D01*
X201801000Y-88602240D01*
X201801000Y-88907760D01*
X201741396Y-89207410D01*
X201624479Y-89489674D01*
X201454741Y-89743705D01*
X201238705Y-89959741D01*
X200984674Y-90129479D01*
X200702410Y-90246396D01*
X200552585Y-90276198D01*
X200402761Y-90306000D01*
X200097239Y-90306000D01*
X199947415Y-90276198D01*
X199797590Y-90246396D01*
X199515326Y-90129479D01*
X199261295Y-89959741D01*
X199045259Y-89743705D01*
X198875521Y-89489674D01*
X198758604Y-89207410D01*
X198699000Y-88907760D01*
X198699000Y-88602240D01*
X198758604Y-88302590D01*
X198875521Y-88020326D01*
X199045259Y-87766295D01*
X199261295Y-87550259D01*
X199515326Y-87380521D01*
X199797590Y-87263604D01*
X199947415Y-87233802D01*
X200097239Y-87204000D01*
X200402761Y-87204000D01*
X200552585Y-87233802D01*
G37*
G36*
X213705450Y-85519760D02*
G01*
X212595070Y-85519760D01*
X212595070Y-82679640D01*
X213705450Y-82679640D01*
X213705450Y-85519760D01*
G37*
G36*
X215706970Y-85519760D02*
G01*
X214596590Y-85519760D01*
X214596590Y-82679640D01*
X215706970Y-82679640D01*
X215706970Y-85519760D01*
G37*
G36*
X217703410Y-85519760D02*
G01*
X216593030Y-85519760D01*
X216593030Y-82679640D01*
X217703410Y-82679640D01*
X217703410Y-85519760D01*
G37*
G36*
X219704930Y-85519760D02*
G01*
X218594550Y-85519760D01*
X218594550Y-82679640D01*
X219704930Y-82679640D01*
X219704930Y-85519760D01*
G37*
G36*
X198755450Y-85519760D02*
G01*
X197645070Y-85519760D01*
X197645070Y-82679640D01*
X198755450Y-82679640D01*
X198755450Y-85519760D01*
G37*
G36*
X200756970Y-85519760D02*
G01*
X199646590Y-85519760D01*
X199646590Y-82679640D01*
X200756970Y-82679640D01*
X200756970Y-85519760D01*
G37*
G36*
X202753410Y-85519760D02*
G01*
X201643030Y-85519760D01*
X201643030Y-82679640D01*
X202753410Y-82679640D01*
X202753410Y-85519760D01*
G37*
G36*
X204754930Y-85519760D02*
G01*
X203644550Y-85519760D01*
X203644550Y-82679640D01*
X204754930Y-82679640D01*
X204754930Y-85519760D01*
G37*
G36*
X222348500Y-78152490D02*
G01*
X220746500Y-78152490D01*
X220746500Y-75050750D01*
X222348500Y-75050750D01*
X222348500Y-78152490D01*
G37*
G36*
X211553500Y-78152490D02*
G01*
X209951500Y-78152490D01*
X209951500Y-75050750D01*
X211553500Y-75050750D01*
X211553500Y-78152490D01*
G37*
G36*
X196603500Y-78152490D02*
G01*
X195001500Y-78152490D01*
X195001500Y-75050750D01*
X196603500Y-75050750D01*
X196603500Y-78152490D01*
G37*
G36*
X207398500Y-78152490D02*
G01*
X205796500Y-78152490D01*
X205796500Y-75050750D01*
X207398500Y-75050750D01*
X207398500Y-78152490D01*
G37*
M02*
