%TF.GenerationSoftware,KiCad,Pcbnew,(5.1.5-0-10_14)*%
%TF.CreationDate,2020-09-17T17:23:34+02:00*%
%TF.ProjectId,power-routing,706f7765-722d-4726-9f75-74696e672e6b,rev?*%
%TF.SameCoordinates,Original*%
%TF.FileFunction,Paste,Top*%
%TF.FilePolarity,Positive*%
%FSLAX46Y46*%
G04 Gerber Fmt 4.6, Leading zero omitted, Abs format (unit mm)*
G04 Created by KiCad (PCBNEW (5.1.5-0-10_14)) date 2020-09-17 17:23:34*
%MOMM*%
%LPD*%
G04 APERTURE LIST*
%ADD10C,0.050000*%
%ADD11R,1.905000X1.270000*%
%ADD12R,1.008380X2.738120*%
%ADD13R,1.500000X2.999740*%
G04 APERTURE END LIST*
D10*
X189100000Y-109850000D02*
X189100000Y-77850000D01*
X224700000Y-113450000D02*
X192700000Y-113450000D01*
X228300000Y-77850000D02*
X228300000Y-109850000D01*
X192700000Y-74250000D02*
X224700000Y-74250000D01*
X189100000Y-77850000D02*
G75*
G02X192700000Y-74250000I3600000J0D01*
G01*
X192700000Y-113450000D02*
G75*
G02X189100000Y-109850000I0J3600000D01*
G01*
X228300000Y-109850000D02*
G75*
G02X224700000Y-113450000I-3600000J0D01*
G01*
X224700000Y-74250000D02*
G75*
G02X228300000Y-77850000I0J-3600000D01*
G01*
X225818034Y-109850000D02*
G75*
G03X225818034Y-109850000I-1118034J0D01*
G01*
X193818034Y-109850000D02*
G75*
G03X193818034Y-109850000I-1118034J0D01*
G01*
X225818034Y-77850000D02*
G75*
G03X225818034Y-77850000I-1118034J0D01*
G01*
X193818034Y-77850000D02*
G75*
G03X193818034Y-77850000I-1118034J0D01*
G01*
D11*
X212600000Y-91824000D03*
X212600000Y-95126000D03*
X208750000Y-95126000D03*
X208750000Y-91824000D03*
D12*
X213150260Y-84099700D03*
X215151780Y-84099700D03*
X217148220Y-84099700D03*
X219149740Y-84099700D03*
D13*
X210752500Y-76601620D03*
X221547500Y-76601620D03*
D12*
X198200260Y-84099700D03*
X200201780Y-84099700D03*
X202198220Y-84099700D03*
X204199740Y-84099700D03*
D13*
X195802500Y-76601620D03*
X206597500Y-76601620D03*
M02*
