%TF.GenerationSoftware,KiCad,Pcbnew,(5.1.5-0-10_14)*%
%TF.CreationDate,2020-09-17T17:23:34+02:00*%
%TF.ProjectId,power-routing,706f7765-722d-4726-9f75-74696e672e6b,rev?*%
%TF.SameCoordinates,Original*%
%TF.FileFunction,Copper,L1,Top*%
%TF.FilePolarity,Positive*%
%FSLAX46Y46*%
G04 Gerber Fmt 4.6, Leading zero omitted, Abs format (unit mm)*
G04 Created by KiCad (PCBNEW (5.1.5-0-10_14)) date 2020-09-17 17:23:34*
%MOMM*%
%LPD*%
G04 APERTURE LIST*
%ADD10C,0.050000*%
%ADD11R,1.905000X1.270000*%
%ADD12R,1.008380X2.738120*%
%ADD13R,1.500000X2.999740*%
%ADD14C,3.000000*%
%ADD15C,1.550000*%
%ADD16C,2.400000*%
%ADD17R,2.400000X2.400000*%
%ADD18O,1.700000X1.700000*%
%ADD19R,1.700000X1.700000*%
%ADD20C,1.000000*%
%ADD21C,0.800000*%
%ADD22C,0.254000*%
G04 APERTURE END LIST*
D10*
X189100000Y-109850000D02*
X189100000Y-77850000D01*
X224700000Y-113450000D02*
X192700000Y-113450000D01*
X228300000Y-77850000D02*
X228300000Y-109850000D01*
X192700000Y-74250000D02*
X224700000Y-74250000D01*
X189100000Y-77850000D02*
G75*
G02X192700000Y-74250000I3600000J0D01*
G01*
X192700000Y-113450000D02*
G75*
G02X189100000Y-109850000I0J3600000D01*
G01*
X228300000Y-109850000D02*
G75*
G02X224700000Y-113450000I-3600000J0D01*
G01*
X224700000Y-74250000D02*
G75*
G02X228300000Y-77850000I0J-3600000D01*
G01*
X225818034Y-109850000D02*
G75*
G03X225818034Y-109850000I-1118034J0D01*
G01*
X193818034Y-109850000D02*
G75*
G03X193818034Y-109850000I-1118034J0D01*
G01*
X225818034Y-77850000D02*
G75*
G03X225818034Y-77850000I-1118034J0D01*
G01*
X193818034Y-77850000D02*
G75*
G03X193818034Y-77850000I-1118034J0D01*
G01*
D11*
X212600000Y-91824000D03*
X212600000Y-95126000D03*
X208750000Y-95126000D03*
X208750000Y-91824000D03*
D12*
X213150260Y-84099700D03*
X215151780Y-84099700D03*
X217148220Y-84099700D03*
X219149740Y-84099700D03*
D13*
X210752500Y-76601620D03*
X221547500Y-76601620D03*
D12*
X198200260Y-84099700D03*
X200201780Y-84099700D03*
X202198220Y-84099700D03*
X204199740Y-84099700D03*
D13*
X195802500Y-76601620D03*
X206597500Y-76601620D03*
D14*
X200250000Y-88755000D03*
X200250000Y-101895000D03*
D15*
X202960000Y-98825000D03*
X202960000Y-96325000D03*
X202960000Y-94325000D03*
X202960000Y-91825000D03*
D16*
X218650000Y-108375000D03*
D17*
X215150000Y-108375000D03*
D16*
X209875000Y-108375000D03*
D17*
X206375000Y-108375000D03*
D16*
X201100000Y-108375000D03*
D17*
X197600000Y-108375000D03*
D18*
X226050000Y-100010000D03*
X226050000Y-97470000D03*
X226050000Y-94930000D03*
X226050000Y-92390000D03*
D19*
X226050000Y-89850000D03*
D20*
X220125000Y-93400000D03*
D21*
X202960000Y-98825000D02*
X206525000Y-95260000D01*
X206525000Y-94683498D02*
X207708498Y-93500000D01*
X206525000Y-95260000D02*
X206525000Y-94683498D01*
X212600000Y-93259000D02*
X212600000Y-91824000D01*
X212359000Y-93500000D02*
X212600000Y-93259000D01*
X207708498Y-93500000D02*
X212359000Y-93500000D01*
X200250000Y-101535000D02*
X202960000Y-98825000D01*
X200250000Y-101895000D02*
X200250000Y-101535000D01*
X212600000Y-90389000D02*
X212600000Y-91824000D01*
X213149000Y-89840000D02*
X212600000Y-90389000D01*
X226025000Y-89840000D02*
X213149000Y-89840000D01*
X197600000Y-104545000D02*
X200250000Y-101895000D01*
X197600000Y-108375000D02*
X197600000Y-104545000D01*
X197600000Y-110375000D02*
X198775000Y-111550000D01*
X197600000Y-108375000D02*
X197600000Y-110375000D01*
X206375000Y-110375000D02*
X206375000Y-108375000D01*
X205200000Y-111550000D02*
X206375000Y-110375000D01*
X198775000Y-111550000D02*
X205200000Y-111550000D01*
X206375000Y-110375000D02*
X207425000Y-111425000D01*
X215150000Y-110375000D02*
X215150000Y-108375000D01*
X214100000Y-111425000D02*
X215150000Y-110375000D01*
X207425000Y-111425000D02*
X214100000Y-111425000D01*
X220125000Y-93400000D02*
X220125000Y-94575000D01*
X223010000Y-97460000D02*
X226025000Y-97460000D01*
X220125000Y-94575000D02*
X223010000Y-97460000D01*
X208749000Y-91825000D02*
X208750000Y-91824000D01*
X202960000Y-91825000D02*
X208749000Y-91825000D01*
X218650000Y-108375000D02*
X221750000Y-108375000D01*
X226025000Y-104100000D02*
X226025000Y-100000000D01*
X221750000Y-108375000D02*
X226025000Y-104100000D01*
X209875000Y-106125000D02*
X209875000Y-108375000D01*
X208675000Y-104925000D02*
X209875000Y-106125000D01*
X204550000Y-104925000D02*
X208675000Y-104925000D01*
X201100000Y-108375000D02*
X204550000Y-104925000D01*
X218650000Y-106677944D02*
X216947056Y-104975000D01*
X218650000Y-108375000D02*
X218650000Y-106677944D01*
X211025000Y-104975000D02*
X209875000Y-106125000D01*
X216947056Y-104975000D02*
X211025000Y-104975000D01*
X208750000Y-95126000D02*
X212600000Y-95126000D01*
D22*
G36*
X194426688Y-74977268D02*
G01*
X194414428Y-75101750D01*
X194414428Y-77313131D01*
X194285724Y-77002413D01*
X194089899Y-76709339D01*
X193840661Y-76460101D01*
X193547587Y-76264276D01*
X193221942Y-76129389D01*
X192876238Y-76060624D01*
X192523762Y-76060624D01*
X192178058Y-76129389D01*
X191852413Y-76264276D01*
X191559339Y-76460101D01*
X191310101Y-76709339D01*
X191114276Y-77002413D01*
X190979389Y-77328058D01*
X190910624Y-77673762D01*
X190910624Y-78026238D01*
X190979389Y-78371942D01*
X191114276Y-78697587D01*
X191310101Y-78990661D01*
X191559339Y-79239899D01*
X191852413Y-79435724D01*
X192178058Y-79570611D01*
X192523762Y-79639376D01*
X192876238Y-79639376D01*
X193221942Y-79570611D01*
X193547587Y-79435724D01*
X193840661Y-79239899D01*
X194089899Y-78990661D01*
X194285724Y-78697587D01*
X194420611Y-78371942D01*
X194440554Y-78271682D01*
X194462998Y-78345670D01*
X194521963Y-78455984D01*
X194601315Y-78552675D01*
X194698006Y-78632027D01*
X194808320Y-78690992D01*
X194928018Y-78727302D01*
X195052500Y-78739562D01*
X196552500Y-78739562D01*
X196676982Y-78727302D01*
X196796680Y-78690992D01*
X196906994Y-78632027D01*
X197003685Y-78552675D01*
X197083037Y-78455984D01*
X197142002Y-78345670D01*
X197178312Y-78225972D01*
X197190572Y-78101490D01*
X197190572Y-75101750D01*
X197178312Y-74977268D01*
X197157906Y-74910000D01*
X205242094Y-74910000D01*
X205221688Y-74977268D01*
X205209428Y-75101750D01*
X205209428Y-78101490D01*
X205221688Y-78225972D01*
X205257998Y-78345670D01*
X205316963Y-78455984D01*
X205396315Y-78552675D01*
X205493006Y-78632027D01*
X205603320Y-78690992D01*
X205723018Y-78727302D01*
X205847500Y-78739562D01*
X207347500Y-78739562D01*
X207471982Y-78727302D01*
X207591680Y-78690992D01*
X207701994Y-78632027D01*
X207798685Y-78552675D01*
X207878037Y-78455984D01*
X207937002Y-78345670D01*
X207973312Y-78225972D01*
X207985572Y-78101490D01*
X207985572Y-75101750D01*
X207973312Y-74977268D01*
X207952906Y-74910000D01*
X209397094Y-74910000D01*
X209376688Y-74977268D01*
X209364428Y-75101750D01*
X209364428Y-78101490D01*
X209376688Y-78225972D01*
X209412998Y-78345670D01*
X209471963Y-78455984D01*
X209551315Y-78552675D01*
X209648006Y-78632027D01*
X209758320Y-78690992D01*
X209878018Y-78727302D01*
X210002500Y-78739562D01*
X211502500Y-78739562D01*
X211626982Y-78727302D01*
X211746680Y-78690992D01*
X211856994Y-78632027D01*
X211953685Y-78552675D01*
X212033037Y-78455984D01*
X212092002Y-78345670D01*
X212128312Y-78225972D01*
X212140572Y-78101490D01*
X212140572Y-75101750D01*
X212128312Y-74977268D01*
X212107906Y-74910000D01*
X220192094Y-74910000D01*
X220171688Y-74977268D01*
X220159428Y-75101750D01*
X220159428Y-78101490D01*
X220171688Y-78225972D01*
X220207998Y-78345670D01*
X220266963Y-78455984D01*
X220346315Y-78552675D01*
X220443006Y-78632027D01*
X220553320Y-78690992D01*
X220673018Y-78727302D01*
X220797500Y-78739562D01*
X222297500Y-78739562D01*
X222421982Y-78727302D01*
X222541680Y-78690992D01*
X222651994Y-78632027D01*
X222748685Y-78552675D01*
X222828037Y-78455984D01*
X222887002Y-78345670D01*
X222923312Y-78225972D01*
X222932267Y-78135045D01*
X222979389Y-78371942D01*
X223114276Y-78697587D01*
X223310101Y-78990661D01*
X223559339Y-79239899D01*
X223852413Y-79435724D01*
X224178058Y-79570611D01*
X224523762Y-79639376D01*
X224876238Y-79639376D01*
X225221942Y-79570611D01*
X225547587Y-79435724D01*
X225840661Y-79239899D01*
X226089899Y-78990661D01*
X226285724Y-78697587D01*
X226420611Y-78371942D01*
X226489376Y-78026238D01*
X226489376Y-77673762D01*
X226420611Y-77328058D01*
X226285724Y-77002413D01*
X226089899Y-76709339D01*
X225840661Y-76460101D01*
X225547587Y-76264276D01*
X225221942Y-76129389D01*
X224876238Y-76060624D01*
X224523762Y-76060624D01*
X224178058Y-76129389D01*
X223852413Y-76264276D01*
X223559339Y-76460101D01*
X223310101Y-76709339D01*
X223114276Y-77002413D01*
X222979389Y-77328058D01*
X222935572Y-77548340D01*
X222935572Y-75101750D01*
X222923312Y-74977268D01*
X222902906Y-74910000D01*
X224667722Y-74910000D01*
X225270433Y-74969096D01*
X225819144Y-75134762D01*
X226325217Y-75403846D01*
X226769396Y-75766110D01*
X227134745Y-76207742D01*
X227407359Y-76711929D01*
X227576852Y-77259471D01*
X227640000Y-77860289D01*
X227640001Y-109817712D01*
X227580904Y-110420433D01*
X227415239Y-110969141D01*
X227146152Y-111475220D01*
X226783893Y-111919394D01*
X226342258Y-112284746D01*
X225838067Y-112557361D01*
X225290533Y-112726851D01*
X224689711Y-112790000D01*
X192732278Y-112790000D01*
X192129567Y-112730904D01*
X191580859Y-112565239D01*
X191074780Y-112296152D01*
X190630606Y-111933893D01*
X190265254Y-111492258D01*
X189992639Y-110988067D01*
X189823149Y-110440533D01*
X189760000Y-109839711D01*
X189760000Y-109673762D01*
X190910624Y-109673762D01*
X190910624Y-110026238D01*
X190979389Y-110371942D01*
X191114276Y-110697587D01*
X191310101Y-110990661D01*
X191559339Y-111239899D01*
X191852413Y-111435724D01*
X192178058Y-111570611D01*
X192523762Y-111639376D01*
X192876238Y-111639376D01*
X193221942Y-111570611D01*
X193547587Y-111435724D01*
X193840661Y-111239899D01*
X194089899Y-110990661D01*
X194285724Y-110697587D01*
X194420611Y-110371942D01*
X194489376Y-110026238D01*
X194489376Y-109673762D01*
X194469731Y-109575000D01*
X195761928Y-109575000D01*
X195774188Y-109699482D01*
X195810498Y-109819180D01*
X195869463Y-109929494D01*
X195948815Y-110026185D01*
X196045506Y-110105537D01*
X196155820Y-110164502D01*
X196275518Y-110200812D01*
X196400000Y-110213072D01*
X197314250Y-110210000D01*
X197473000Y-110051250D01*
X197473000Y-108502000D01*
X195923750Y-108502000D01*
X195765000Y-108660750D01*
X195761928Y-109575000D01*
X194469731Y-109575000D01*
X194420611Y-109328058D01*
X194285724Y-109002413D01*
X194089899Y-108709339D01*
X193840661Y-108460101D01*
X193547587Y-108264276D01*
X193221942Y-108129389D01*
X192876238Y-108060624D01*
X192523762Y-108060624D01*
X192178058Y-108129389D01*
X191852413Y-108264276D01*
X191559339Y-108460101D01*
X191310101Y-108709339D01*
X191114276Y-109002413D01*
X190979389Y-109328058D01*
X190910624Y-109673762D01*
X189760000Y-109673762D01*
X189760000Y-107175000D01*
X195761928Y-107175000D01*
X195765000Y-108089250D01*
X195923750Y-108248000D01*
X197473000Y-108248000D01*
X197473000Y-106698750D01*
X197727000Y-106698750D01*
X197727000Y-108248000D01*
X197747000Y-108248000D01*
X197747000Y-108502000D01*
X197727000Y-108502000D01*
X197727000Y-110051250D01*
X197885750Y-110210000D01*
X198800000Y-110213072D01*
X198924482Y-110200812D01*
X199044180Y-110164502D01*
X199154494Y-110105537D01*
X199251185Y-110026185D01*
X199330537Y-109929494D01*
X199389502Y-109819180D01*
X199425812Y-109699482D01*
X199438072Y-109575000D01*
X199436659Y-109154426D01*
X199473844Y-109244199D01*
X199674662Y-109544744D01*
X199930256Y-109800338D01*
X200230801Y-110001156D01*
X200564750Y-110139482D01*
X200919268Y-110210000D01*
X201280732Y-110210000D01*
X201635250Y-110139482D01*
X201969199Y-110001156D01*
X202269744Y-109800338D01*
X202495082Y-109575000D01*
X204536928Y-109575000D01*
X204549188Y-109699482D01*
X204585498Y-109819180D01*
X204644463Y-109929494D01*
X204723815Y-110026185D01*
X204820506Y-110105537D01*
X204930820Y-110164502D01*
X205050518Y-110200812D01*
X205175000Y-110213072D01*
X206089250Y-110210000D01*
X206248000Y-110051250D01*
X206248000Y-108502000D01*
X204698750Y-108502000D01*
X204540000Y-108660750D01*
X204536928Y-109575000D01*
X202495082Y-109575000D01*
X202525338Y-109544744D01*
X202726156Y-109244199D01*
X202864482Y-108910250D01*
X202935000Y-108555732D01*
X202935000Y-108194268D01*
X202903384Y-108035326D01*
X203763710Y-107175000D01*
X204536928Y-107175000D01*
X204540000Y-108089250D01*
X204698750Y-108248000D01*
X206248000Y-108248000D01*
X206248000Y-106698750D01*
X206089250Y-106540000D01*
X205175000Y-106536928D01*
X205050518Y-106549188D01*
X204930820Y-106585498D01*
X204820506Y-106644463D01*
X204723815Y-106723815D01*
X204644463Y-106820506D01*
X204585498Y-106930820D01*
X204549188Y-107050518D01*
X204536928Y-107175000D01*
X203763710Y-107175000D01*
X204978711Y-105960000D01*
X208246290Y-105960000D01*
X208840000Y-106553711D01*
X208840000Y-106859629D01*
X208705256Y-106949662D01*
X208449662Y-107205256D01*
X208248844Y-107505801D01*
X208211659Y-107595574D01*
X208213072Y-107175000D01*
X208200812Y-107050518D01*
X208164502Y-106930820D01*
X208105537Y-106820506D01*
X208026185Y-106723815D01*
X207929494Y-106644463D01*
X207819180Y-106585498D01*
X207699482Y-106549188D01*
X207575000Y-106536928D01*
X206660750Y-106540000D01*
X206502000Y-106698750D01*
X206502000Y-108248000D01*
X206522000Y-108248000D01*
X206522000Y-108502000D01*
X206502000Y-108502000D01*
X206502000Y-110051250D01*
X206660750Y-110210000D01*
X207575000Y-110213072D01*
X207699482Y-110200812D01*
X207819180Y-110164502D01*
X207929494Y-110105537D01*
X208026185Y-110026185D01*
X208105537Y-109929494D01*
X208164502Y-109819180D01*
X208200812Y-109699482D01*
X208213072Y-109575000D01*
X208211659Y-109154426D01*
X208248844Y-109244199D01*
X208449662Y-109544744D01*
X208705256Y-109800338D01*
X209005801Y-110001156D01*
X209339750Y-110139482D01*
X209694268Y-110210000D01*
X210055732Y-110210000D01*
X210410250Y-110139482D01*
X210744199Y-110001156D01*
X211044744Y-109800338D01*
X211270082Y-109575000D01*
X213311928Y-109575000D01*
X213324188Y-109699482D01*
X213360498Y-109819180D01*
X213419463Y-109929494D01*
X213498815Y-110026185D01*
X213595506Y-110105537D01*
X213705820Y-110164502D01*
X213825518Y-110200812D01*
X213950000Y-110213072D01*
X214864250Y-110210000D01*
X215023000Y-110051250D01*
X215023000Y-108502000D01*
X213473750Y-108502000D01*
X213315000Y-108660750D01*
X213311928Y-109575000D01*
X211270082Y-109575000D01*
X211300338Y-109544744D01*
X211501156Y-109244199D01*
X211639482Y-108910250D01*
X211710000Y-108555732D01*
X211710000Y-108194268D01*
X211639482Y-107839750D01*
X211501156Y-107505801D01*
X211300338Y-107205256D01*
X211270082Y-107175000D01*
X213311928Y-107175000D01*
X213315000Y-108089250D01*
X213473750Y-108248000D01*
X215023000Y-108248000D01*
X215023000Y-106698750D01*
X214864250Y-106540000D01*
X213950000Y-106536928D01*
X213825518Y-106549188D01*
X213705820Y-106585498D01*
X213595506Y-106644463D01*
X213498815Y-106723815D01*
X213419463Y-106820506D01*
X213360498Y-106930820D01*
X213324188Y-107050518D01*
X213311928Y-107175000D01*
X211270082Y-107175000D01*
X211044744Y-106949662D01*
X210910000Y-106859629D01*
X210910000Y-106553710D01*
X211453711Y-106010000D01*
X216518346Y-106010000D01*
X217469132Y-106960786D01*
X217224662Y-107205256D01*
X217023844Y-107505801D01*
X216986659Y-107595574D01*
X216988072Y-107175000D01*
X216975812Y-107050518D01*
X216939502Y-106930820D01*
X216880537Y-106820506D01*
X216801185Y-106723815D01*
X216704494Y-106644463D01*
X216594180Y-106585498D01*
X216474482Y-106549188D01*
X216350000Y-106536928D01*
X215435750Y-106540000D01*
X215277000Y-106698750D01*
X215277000Y-108248000D01*
X215297000Y-108248000D01*
X215297000Y-108502000D01*
X215277000Y-108502000D01*
X215277000Y-110051250D01*
X215435750Y-110210000D01*
X216350000Y-110213072D01*
X216474482Y-110200812D01*
X216594180Y-110164502D01*
X216704494Y-110105537D01*
X216801185Y-110026185D01*
X216880537Y-109929494D01*
X216939502Y-109819180D01*
X216975812Y-109699482D01*
X216988072Y-109575000D01*
X216986659Y-109154426D01*
X217023844Y-109244199D01*
X217224662Y-109544744D01*
X217480256Y-109800338D01*
X217780801Y-110001156D01*
X218114750Y-110139482D01*
X218469268Y-110210000D01*
X218830732Y-110210000D01*
X219185250Y-110139482D01*
X219519199Y-110001156D01*
X219819744Y-109800338D01*
X219946320Y-109673762D01*
X222910624Y-109673762D01*
X222910624Y-110026238D01*
X222979389Y-110371942D01*
X223114276Y-110697587D01*
X223310101Y-110990661D01*
X223559339Y-111239899D01*
X223852413Y-111435724D01*
X224178058Y-111570611D01*
X224523762Y-111639376D01*
X224876238Y-111639376D01*
X225221942Y-111570611D01*
X225547587Y-111435724D01*
X225840661Y-111239899D01*
X226089899Y-110990661D01*
X226285724Y-110697587D01*
X226420611Y-110371942D01*
X226489376Y-110026238D01*
X226489376Y-109673762D01*
X226420611Y-109328058D01*
X226285724Y-109002413D01*
X226089899Y-108709339D01*
X225840661Y-108460101D01*
X225547587Y-108264276D01*
X225221942Y-108129389D01*
X224876238Y-108060624D01*
X224523762Y-108060624D01*
X224178058Y-108129389D01*
X223852413Y-108264276D01*
X223559339Y-108460101D01*
X223310101Y-108709339D01*
X223114276Y-109002413D01*
X222979389Y-109328058D01*
X222910624Y-109673762D01*
X219946320Y-109673762D01*
X220075338Y-109544744D01*
X220165371Y-109410000D01*
X221699172Y-109410000D01*
X221750000Y-109415006D01*
X221800828Y-109410000D01*
X221800838Y-109410000D01*
X221952895Y-109395024D01*
X222147993Y-109335841D01*
X222327797Y-109239734D01*
X222485396Y-109110396D01*
X222517807Y-109070903D01*
X226720908Y-104867803D01*
X226760396Y-104835396D01*
X226812338Y-104772105D01*
X226889734Y-104677798D01*
X226943607Y-104577007D01*
X226985841Y-104497993D01*
X227045024Y-104302895D01*
X227060000Y-104150838D01*
X227060000Y-104150836D01*
X227065007Y-104100000D01*
X227060000Y-104049165D01*
X227060000Y-101100107D01*
X227203475Y-100956632D01*
X227365990Y-100713411D01*
X227477932Y-100443158D01*
X227535000Y-100156260D01*
X227535000Y-99863740D01*
X227477932Y-99576842D01*
X227365990Y-99306589D01*
X227203475Y-99063368D01*
X226996632Y-98856525D01*
X226822240Y-98740000D01*
X226996632Y-98623475D01*
X227203475Y-98416632D01*
X227365990Y-98173411D01*
X227477932Y-97903158D01*
X227535000Y-97616260D01*
X227535000Y-97323740D01*
X227477932Y-97036842D01*
X227365990Y-96766589D01*
X227203475Y-96523368D01*
X226996632Y-96316525D01*
X226822240Y-96200000D01*
X226996632Y-96083475D01*
X227203475Y-95876632D01*
X227365990Y-95633411D01*
X227477932Y-95363158D01*
X227535000Y-95076260D01*
X227535000Y-94783740D01*
X227477932Y-94496842D01*
X227365990Y-94226589D01*
X227203475Y-93983368D01*
X226996632Y-93776525D01*
X226822240Y-93660000D01*
X226996632Y-93543475D01*
X227203475Y-93336632D01*
X227365990Y-93093411D01*
X227477932Y-92823158D01*
X227535000Y-92536260D01*
X227535000Y-92243740D01*
X227477932Y-91956842D01*
X227365990Y-91686589D01*
X227203475Y-91443368D01*
X227071620Y-91311513D01*
X227144180Y-91289502D01*
X227254494Y-91230537D01*
X227351185Y-91151185D01*
X227430537Y-91054494D01*
X227489502Y-90944180D01*
X227525812Y-90824482D01*
X227538072Y-90700000D01*
X227535000Y-90135750D01*
X227376250Y-89977000D01*
X226177000Y-89977000D01*
X226177000Y-89997000D01*
X225923000Y-89997000D01*
X225923000Y-89977000D01*
X224723750Y-89977000D01*
X224565000Y-90135750D01*
X224561928Y-90700000D01*
X224574188Y-90824482D01*
X224610498Y-90944180D01*
X224669463Y-91054494D01*
X224748815Y-91151185D01*
X224845506Y-91230537D01*
X224955820Y-91289502D01*
X225028380Y-91311513D01*
X224896525Y-91443368D01*
X224734010Y-91686589D01*
X224622068Y-91956842D01*
X224565000Y-92243740D01*
X224565000Y-92536260D01*
X224622068Y-92823158D01*
X224734010Y-93093411D01*
X224896525Y-93336632D01*
X225103368Y-93543475D01*
X225277760Y-93660000D01*
X225103368Y-93776525D01*
X224896525Y-93983368D01*
X224734010Y-94226589D01*
X224622068Y-94496842D01*
X224565000Y-94783740D01*
X224565000Y-95076260D01*
X224622068Y-95363158D01*
X224734010Y-95633411D01*
X224896525Y-95876632D01*
X225103368Y-96083475D01*
X225277760Y-96200000D01*
X225103368Y-96316525D01*
X224994893Y-96425000D01*
X223438711Y-96425000D01*
X221160000Y-94146290D01*
X221160000Y-93867187D01*
X221216383Y-93731067D01*
X221260000Y-93511788D01*
X221260000Y-93288212D01*
X221216383Y-93068933D01*
X221130824Y-92862376D01*
X221006612Y-92676480D01*
X220848520Y-92518388D01*
X220662624Y-92394176D01*
X220456067Y-92308617D01*
X220236788Y-92265000D01*
X220013212Y-92265000D01*
X219793933Y-92308617D01*
X219587376Y-92394176D01*
X219401480Y-92518388D01*
X219243388Y-92676480D01*
X219119176Y-92862376D01*
X219033617Y-93068933D01*
X218990000Y-93288212D01*
X218990000Y-93511788D01*
X219033617Y-93731067D01*
X219090000Y-93867188D01*
X219090001Y-94524163D01*
X219084994Y-94575000D01*
X219104977Y-94777895D01*
X219164160Y-94972993D01*
X219260266Y-95152797D01*
X219357197Y-95270907D01*
X219389605Y-95310396D01*
X219429092Y-95342802D01*
X222242197Y-98155908D01*
X222274604Y-98195396D01*
X222314092Y-98227803D01*
X222432202Y-98324734D01*
X222528309Y-98376104D01*
X222612007Y-98420841D01*
X222807105Y-98480024D01*
X222959162Y-98495000D01*
X222959171Y-98495000D01*
X223009999Y-98500006D01*
X223060827Y-98495000D01*
X224974893Y-98495000D01*
X225103368Y-98623475D01*
X225277760Y-98740000D01*
X225103368Y-98856525D01*
X224896525Y-99063368D01*
X224734010Y-99306589D01*
X224622068Y-99576842D01*
X224565000Y-99863740D01*
X224565000Y-100156260D01*
X224622068Y-100443158D01*
X224734010Y-100713411D01*
X224896525Y-100956632D01*
X224990001Y-101050108D01*
X224990000Y-103671289D01*
X221321290Y-107340000D01*
X220165371Y-107340000D01*
X220075338Y-107205256D01*
X219819744Y-106949662D01*
X219685000Y-106859629D01*
X219685000Y-106728779D01*
X219690007Y-106677944D01*
X219680902Y-106585498D01*
X219670024Y-106475049D01*
X219610841Y-106279951D01*
X219610841Y-106279950D01*
X219514734Y-106100146D01*
X219417803Y-105982036D01*
X219385396Y-105942548D01*
X219345908Y-105910141D01*
X217714863Y-104279097D01*
X217682452Y-104239604D01*
X217524853Y-104110266D01*
X217345049Y-104014159D01*
X217149951Y-103954976D01*
X216997894Y-103940000D01*
X216997884Y-103940000D01*
X216947056Y-103934994D01*
X216896228Y-103940000D01*
X211075835Y-103940000D01*
X211025000Y-103934993D01*
X210974165Y-103940000D01*
X210974162Y-103940000D01*
X210822105Y-103954976D01*
X210705547Y-103990334D01*
X210627006Y-104014159D01*
X210447202Y-104110266D01*
X210390017Y-104157197D01*
X210289604Y-104239604D01*
X210257197Y-104279092D01*
X209875000Y-104661289D01*
X209442807Y-104229097D01*
X209410396Y-104189604D01*
X209252797Y-104060266D01*
X209072993Y-103964159D01*
X208877895Y-103904976D01*
X208725838Y-103890000D01*
X208725828Y-103890000D01*
X208675000Y-103884994D01*
X208624172Y-103890000D01*
X204600835Y-103890000D01*
X204550000Y-103884993D01*
X204499165Y-103890000D01*
X204499162Y-103890000D01*
X204347105Y-103904976D01*
X204152007Y-103964159D01*
X204103037Y-103990334D01*
X203972202Y-104060266D01*
X203854092Y-104157197D01*
X203814604Y-104189604D01*
X203782197Y-104229092D01*
X201439674Y-106571616D01*
X201280732Y-106540000D01*
X200919268Y-106540000D01*
X200564750Y-106610518D01*
X200230801Y-106748844D01*
X199930256Y-106949662D01*
X199674662Y-107205256D01*
X199473844Y-107505801D01*
X199436659Y-107595574D01*
X199438072Y-107175000D01*
X199425812Y-107050518D01*
X199389502Y-106930820D01*
X199330537Y-106820506D01*
X199251185Y-106723815D01*
X199154494Y-106644463D01*
X199044180Y-106585498D01*
X198924482Y-106549188D01*
X198800000Y-106536928D01*
X197885750Y-106540000D01*
X197727000Y-106698750D01*
X197473000Y-106698750D01*
X197314250Y-106540000D01*
X196400000Y-106536928D01*
X196275518Y-106549188D01*
X196155820Y-106585498D01*
X196045506Y-106644463D01*
X195948815Y-106723815D01*
X195869463Y-106820506D01*
X195810498Y-106930820D01*
X195774188Y-107050518D01*
X195761928Y-107175000D01*
X189760000Y-107175000D01*
X189760000Y-103386653D01*
X198937952Y-103386653D01*
X199093962Y-103702214D01*
X199468745Y-103893020D01*
X199873551Y-104007044D01*
X200292824Y-104039902D01*
X200710451Y-103990334D01*
X201110383Y-103860243D01*
X201406038Y-103702214D01*
X201562048Y-103386653D01*
X200250000Y-102074605D01*
X198937952Y-103386653D01*
X189760000Y-103386653D01*
X189760000Y-101937824D01*
X198105098Y-101937824D01*
X198154666Y-102355451D01*
X198284757Y-102755383D01*
X198442786Y-103051038D01*
X198758347Y-103207048D01*
X200070395Y-101895000D01*
X200429605Y-101895000D01*
X201741653Y-103207048D01*
X202057214Y-103051038D01*
X202248020Y-102676255D01*
X202362044Y-102271449D01*
X202394902Y-101852176D01*
X202345334Y-101434549D01*
X202215243Y-101034617D01*
X202057214Y-100738962D01*
X201741653Y-100582952D01*
X200429605Y-101895000D01*
X200070395Y-101895000D01*
X198758347Y-100582952D01*
X198442786Y-100738962D01*
X198251980Y-101113745D01*
X198137956Y-101518551D01*
X198105098Y-101937824D01*
X189760000Y-101937824D01*
X189760000Y-100403347D01*
X198937952Y-100403347D01*
X200250000Y-101715395D01*
X201562048Y-100403347D01*
X201406038Y-100087786D01*
X201031255Y-99896980D01*
X200686423Y-99799849D01*
X202164756Y-99799849D01*
X202233310Y-100041268D01*
X202484556Y-100159668D01*
X202754071Y-100226778D01*
X203031502Y-100240018D01*
X203306184Y-100198879D01*
X203567562Y-100104943D01*
X203686690Y-100041268D01*
X203755244Y-99799849D01*
X202960000Y-99004605D01*
X202164756Y-99799849D01*
X200686423Y-99799849D01*
X200626449Y-99782956D01*
X200207176Y-99750098D01*
X199789549Y-99799666D01*
X199389617Y-99929757D01*
X199093962Y-100087786D01*
X198937952Y-100403347D01*
X189760000Y-100403347D01*
X189760000Y-98896502D01*
X201544982Y-98896502D01*
X201586121Y-99171184D01*
X201680057Y-99432562D01*
X201743732Y-99551690D01*
X201985151Y-99620244D01*
X202780395Y-98825000D01*
X203139605Y-98825000D01*
X203934849Y-99620244D01*
X204176268Y-99551690D01*
X204294668Y-99300444D01*
X204361778Y-99030929D01*
X204375018Y-98753498D01*
X204333879Y-98478816D01*
X204239943Y-98217438D01*
X204176268Y-98098310D01*
X203934849Y-98029756D01*
X203139605Y-98825000D01*
X202780395Y-98825000D01*
X201985151Y-98029756D01*
X201743732Y-98098310D01*
X201625332Y-98349556D01*
X201558222Y-98619071D01*
X201544982Y-98896502D01*
X189760000Y-98896502D01*
X189760000Y-91686127D01*
X201550000Y-91686127D01*
X201550000Y-91963873D01*
X201604186Y-92236282D01*
X201710475Y-92492885D01*
X201864782Y-92723822D01*
X202061178Y-92920218D01*
X202292115Y-93074525D01*
X202293262Y-93075000D01*
X202292115Y-93075475D01*
X202061178Y-93229782D01*
X201864782Y-93426178D01*
X201710475Y-93657115D01*
X201604186Y-93913718D01*
X201550000Y-94186127D01*
X201550000Y-94463873D01*
X201604186Y-94736282D01*
X201710475Y-94992885D01*
X201864782Y-95223822D01*
X201965960Y-95325000D01*
X201864782Y-95426178D01*
X201710475Y-95657115D01*
X201604186Y-95913718D01*
X201550000Y-96186127D01*
X201550000Y-96463873D01*
X201604186Y-96736282D01*
X201710475Y-96992885D01*
X201864782Y-97223822D01*
X202061178Y-97420218D01*
X202292115Y-97574525D01*
X202295040Y-97575737D01*
X202233310Y-97608732D01*
X202164756Y-97850151D01*
X202960000Y-98645395D01*
X203755244Y-97850151D01*
X203686690Y-97608732D01*
X203620550Y-97577563D01*
X203627885Y-97574525D01*
X203858822Y-97420218D01*
X204055218Y-97223822D01*
X204209525Y-96992885D01*
X204315814Y-96736282D01*
X204370000Y-96463873D01*
X204370000Y-96186127D01*
X204315814Y-95913718D01*
X204209525Y-95657115D01*
X204055218Y-95426178D01*
X203954040Y-95325000D01*
X204055218Y-95223822D01*
X204209525Y-94992885D01*
X204315814Y-94736282D01*
X204364604Y-94491000D01*
X207159428Y-94491000D01*
X207159428Y-95761000D01*
X207171688Y-95885482D01*
X207207998Y-96005180D01*
X207266963Y-96115494D01*
X207346315Y-96212185D01*
X207443006Y-96291537D01*
X207553320Y-96350502D01*
X207673018Y-96386812D01*
X207797500Y-96399072D01*
X209702500Y-96399072D01*
X209826982Y-96386812D01*
X209946680Y-96350502D01*
X210056994Y-96291537D01*
X210153685Y-96212185D01*
X210195691Y-96161000D01*
X211154309Y-96161000D01*
X211196315Y-96212185D01*
X211293006Y-96291537D01*
X211403320Y-96350502D01*
X211523018Y-96386812D01*
X211647500Y-96399072D01*
X213552500Y-96399072D01*
X213676982Y-96386812D01*
X213796680Y-96350502D01*
X213906994Y-96291537D01*
X214003685Y-96212185D01*
X214083037Y-96115494D01*
X214142002Y-96005180D01*
X214178312Y-95885482D01*
X214190572Y-95761000D01*
X214190572Y-94491000D01*
X214178312Y-94366518D01*
X214142002Y-94246820D01*
X214083037Y-94136506D01*
X214003685Y-94039815D01*
X213906994Y-93960463D01*
X213796680Y-93901498D01*
X213676982Y-93865188D01*
X213552500Y-93852928D01*
X211647500Y-93852928D01*
X211523018Y-93865188D01*
X211403320Y-93901498D01*
X211293006Y-93960463D01*
X211196315Y-94039815D01*
X211154309Y-94091000D01*
X210195691Y-94091000D01*
X210153685Y-94039815D01*
X210056994Y-93960463D01*
X209946680Y-93901498D01*
X209826982Y-93865188D01*
X209702500Y-93852928D01*
X207797500Y-93852928D01*
X207673018Y-93865188D01*
X207553320Y-93901498D01*
X207443006Y-93960463D01*
X207346315Y-94039815D01*
X207266963Y-94136506D01*
X207207998Y-94246820D01*
X207171688Y-94366518D01*
X207159428Y-94491000D01*
X204364604Y-94491000D01*
X204370000Y-94463873D01*
X204370000Y-94186127D01*
X204315814Y-93913718D01*
X204209525Y-93657115D01*
X204055218Y-93426178D01*
X203858822Y-93229782D01*
X203627885Y-93075475D01*
X203626738Y-93075000D01*
X203627885Y-93074525D01*
X203858822Y-92920218D01*
X203919040Y-92860000D01*
X207305129Y-92860000D01*
X207346315Y-92910185D01*
X207443006Y-92989537D01*
X207553320Y-93048502D01*
X207673018Y-93084812D01*
X207797500Y-93097072D01*
X209702500Y-93097072D01*
X209826982Y-93084812D01*
X209946680Y-93048502D01*
X210056994Y-92989537D01*
X210153685Y-92910185D01*
X210233037Y-92813494D01*
X210292002Y-92703180D01*
X210328312Y-92583482D01*
X210340572Y-92459000D01*
X211009428Y-92459000D01*
X211021688Y-92583482D01*
X211057998Y-92703180D01*
X211116963Y-92813494D01*
X211196315Y-92910185D01*
X211293006Y-92989537D01*
X211403320Y-93048502D01*
X211523018Y-93084812D01*
X211647500Y-93097072D01*
X212314250Y-93094000D01*
X212473000Y-92935250D01*
X212473000Y-91951000D01*
X212727000Y-91951000D01*
X212727000Y-92935250D01*
X212885750Y-93094000D01*
X213552500Y-93097072D01*
X213676982Y-93084812D01*
X213796680Y-93048502D01*
X213906994Y-92989537D01*
X214003685Y-92910185D01*
X214083037Y-92813494D01*
X214142002Y-92703180D01*
X214178312Y-92583482D01*
X214190572Y-92459000D01*
X214187500Y-92109750D01*
X214028750Y-91951000D01*
X212727000Y-91951000D01*
X212473000Y-91951000D01*
X211171250Y-91951000D01*
X211012500Y-92109750D01*
X211009428Y-92459000D01*
X210340572Y-92459000D01*
X210340572Y-91189000D01*
X211009428Y-91189000D01*
X211012500Y-91538250D01*
X211171250Y-91697000D01*
X212473000Y-91697000D01*
X212473000Y-90712750D01*
X212727000Y-90712750D01*
X212727000Y-91697000D01*
X214028750Y-91697000D01*
X214187500Y-91538250D01*
X214190572Y-91189000D01*
X214178312Y-91064518D01*
X214142002Y-90944820D01*
X214083037Y-90834506D01*
X214003685Y-90737815D01*
X213906994Y-90658463D01*
X213796680Y-90599498D01*
X213676982Y-90563188D01*
X213552500Y-90550928D01*
X212885750Y-90554000D01*
X212727000Y-90712750D01*
X212473000Y-90712750D01*
X212314250Y-90554000D01*
X211647500Y-90550928D01*
X211523018Y-90563188D01*
X211403320Y-90599498D01*
X211293006Y-90658463D01*
X211196315Y-90737815D01*
X211116963Y-90834506D01*
X211057998Y-90944820D01*
X211021688Y-91064518D01*
X211009428Y-91189000D01*
X210340572Y-91189000D01*
X210328312Y-91064518D01*
X210292002Y-90944820D01*
X210233037Y-90834506D01*
X210153685Y-90737815D01*
X210056994Y-90658463D01*
X209946680Y-90599498D01*
X209826982Y-90563188D01*
X209702500Y-90550928D01*
X207797500Y-90550928D01*
X207673018Y-90563188D01*
X207553320Y-90599498D01*
X207443006Y-90658463D01*
X207346315Y-90737815D01*
X207303488Y-90790000D01*
X203919040Y-90790000D01*
X203858822Y-90729782D01*
X203627885Y-90575475D01*
X203371282Y-90469186D01*
X203098873Y-90415000D01*
X202821127Y-90415000D01*
X202548718Y-90469186D01*
X202292115Y-90575475D01*
X202061178Y-90729782D01*
X201864782Y-90926178D01*
X201710475Y-91157115D01*
X201604186Y-91413718D01*
X201550000Y-91686127D01*
X189760000Y-91686127D01*
X189760000Y-88544721D01*
X198115000Y-88544721D01*
X198115000Y-88965279D01*
X198197047Y-89377756D01*
X198357988Y-89766302D01*
X198591637Y-90115983D01*
X198889017Y-90413363D01*
X199238698Y-90647012D01*
X199627244Y-90807953D01*
X200039721Y-90890000D01*
X200460279Y-90890000D01*
X200872756Y-90807953D01*
X201261302Y-90647012D01*
X201610983Y-90413363D01*
X201908363Y-90115983D01*
X202142012Y-89766302D01*
X202302953Y-89377756D01*
X202378093Y-89000000D01*
X224561928Y-89000000D01*
X224565000Y-89564250D01*
X224723750Y-89723000D01*
X225923000Y-89723000D01*
X225923000Y-88523750D01*
X226177000Y-88523750D01*
X226177000Y-89723000D01*
X227376250Y-89723000D01*
X227535000Y-89564250D01*
X227538072Y-89000000D01*
X227525812Y-88875518D01*
X227489502Y-88755820D01*
X227430537Y-88645506D01*
X227351185Y-88548815D01*
X227254494Y-88469463D01*
X227144180Y-88410498D01*
X227024482Y-88374188D01*
X226900000Y-88361928D01*
X226335750Y-88365000D01*
X226177000Y-88523750D01*
X225923000Y-88523750D01*
X225764250Y-88365000D01*
X225200000Y-88361928D01*
X225075518Y-88374188D01*
X224955820Y-88410498D01*
X224845506Y-88469463D01*
X224748815Y-88548815D01*
X224669463Y-88645506D01*
X224610498Y-88755820D01*
X224574188Y-88875518D01*
X224561928Y-89000000D01*
X202378093Y-89000000D01*
X202385000Y-88965279D01*
X202385000Y-88544721D01*
X202302953Y-88132244D01*
X202142012Y-87743698D01*
X201908363Y-87394017D01*
X201610983Y-87096637D01*
X201261302Y-86862988D01*
X200872756Y-86702047D01*
X200460279Y-86620000D01*
X200039721Y-86620000D01*
X199627244Y-86702047D01*
X199238698Y-86862988D01*
X198889017Y-87096637D01*
X198591637Y-87394017D01*
X198357988Y-87743698D01*
X198197047Y-88132244D01*
X198115000Y-88544721D01*
X189760000Y-88544721D01*
X189760000Y-82730640D01*
X197057998Y-82730640D01*
X197057998Y-85468760D01*
X197070258Y-85593242D01*
X197106568Y-85712940D01*
X197165533Y-85823254D01*
X197244885Y-85919945D01*
X197341576Y-85999297D01*
X197451890Y-86058262D01*
X197571588Y-86094572D01*
X197696070Y-86106832D01*
X198704450Y-86106832D01*
X198828932Y-86094572D01*
X198948630Y-86058262D01*
X199058944Y-85999297D01*
X199155635Y-85919945D01*
X199201020Y-85864643D01*
X199246405Y-85919945D01*
X199343096Y-85999297D01*
X199453410Y-86058262D01*
X199573108Y-86094572D01*
X199697590Y-86106832D01*
X200705970Y-86106832D01*
X200830452Y-86094572D01*
X200950150Y-86058262D01*
X201060464Y-85999297D01*
X201157155Y-85919945D01*
X201200000Y-85867738D01*
X201242845Y-85919945D01*
X201339536Y-85999297D01*
X201449850Y-86058262D01*
X201569548Y-86094572D01*
X201694030Y-86106832D01*
X202702410Y-86106832D01*
X202826892Y-86094572D01*
X202946590Y-86058262D01*
X203056904Y-85999297D01*
X203153595Y-85919945D01*
X203198980Y-85864643D01*
X203244365Y-85919945D01*
X203341056Y-85999297D01*
X203451370Y-86058262D01*
X203571068Y-86094572D01*
X203695550Y-86106832D01*
X204703930Y-86106832D01*
X204828412Y-86094572D01*
X204948110Y-86058262D01*
X205058424Y-85999297D01*
X205155115Y-85919945D01*
X205234467Y-85823254D01*
X205293432Y-85712940D01*
X205329742Y-85593242D01*
X205342002Y-85468760D01*
X205342002Y-82730640D01*
X212007998Y-82730640D01*
X212007998Y-85468760D01*
X212020258Y-85593242D01*
X212056568Y-85712940D01*
X212115533Y-85823254D01*
X212194885Y-85919945D01*
X212291576Y-85999297D01*
X212401890Y-86058262D01*
X212521588Y-86094572D01*
X212646070Y-86106832D01*
X213654450Y-86106832D01*
X213778932Y-86094572D01*
X213898630Y-86058262D01*
X214008944Y-85999297D01*
X214105635Y-85919945D01*
X214151020Y-85864643D01*
X214196405Y-85919945D01*
X214293096Y-85999297D01*
X214403410Y-86058262D01*
X214523108Y-86094572D01*
X214647590Y-86106832D01*
X215655970Y-86106832D01*
X215780452Y-86094572D01*
X215900150Y-86058262D01*
X216010464Y-85999297D01*
X216107155Y-85919945D01*
X216150000Y-85867738D01*
X216192845Y-85919945D01*
X216289536Y-85999297D01*
X216399850Y-86058262D01*
X216519548Y-86094572D01*
X216644030Y-86106832D01*
X217652410Y-86106832D01*
X217776892Y-86094572D01*
X217896590Y-86058262D01*
X218006904Y-85999297D01*
X218103595Y-85919945D01*
X218148980Y-85864643D01*
X218194365Y-85919945D01*
X218291056Y-85999297D01*
X218401370Y-86058262D01*
X218521068Y-86094572D01*
X218645550Y-86106832D01*
X219653930Y-86106832D01*
X219778412Y-86094572D01*
X219898110Y-86058262D01*
X220008424Y-85999297D01*
X220105115Y-85919945D01*
X220184467Y-85823254D01*
X220243432Y-85712940D01*
X220279742Y-85593242D01*
X220292002Y-85468760D01*
X220292002Y-82730640D01*
X220279742Y-82606158D01*
X220243432Y-82486460D01*
X220184467Y-82376146D01*
X220105115Y-82279455D01*
X220008424Y-82200103D01*
X219898110Y-82141138D01*
X219778412Y-82104828D01*
X219653930Y-82092568D01*
X218645550Y-82092568D01*
X218521068Y-82104828D01*
X218401370Y-82141138D01*
X218291056Y-82200103D01*
X218194365Y-82279455D01*
X218148980Y-82334757D01*
X218103595Y-82279455D01*
X218006904Y-82200103D01*
X217896590Y-82141138D01*
X217776892Y-82104828D01*
X217652410Y-82092568D01*
X216644030Y-82092568D01*
X216519548Y-82104828D01*
X216399850Y-82141138D01*
X216289536Y-82200103D01*
X216192845Y-82279455D01*
X216150000Y-82331662D01*
X216107155Y-82279455D01*
X216010464Y-82200103D01*
X215900150Y-82141138D01*
X215780452Y-82104828D01*
X215655970Y-82092568D01*
X214647590Y-82092568D01*
X214523108Y-82104828D01*
X214403410Y-82141138D01*
X214293096Y-82200103D01*
X214196405Y-82279455D01*
X214151020Y-82334757D01*
X214105635Y-82279455D01*
X214008944Y-82200103D01*
X213898630Y-82141138D01*
X213778932Y-82104828D01*
X213654450Y-82092568D01*
X212646070Y-82092568D01*
X212521588Y-82104828D01*
X212401890Y-82141138D01*
X212291576Y-82200103D01*
X212194885Y-82279455D01*
X212115533Y-82376146D01*
X212056568Y-82486460D01*
X212020258Y-82606158D01*
X212007998Y-82730640D01*
X205342002Y-82730640D01*
X205329742Y-82606158D01*
X205293432Y-82486460D01*
X205234467Y-82376146D01*
X205155115Y-82279455D01*
X205058424Y-82200103D01*
X204948110Y-82141138D01*
X204828412Y-82104828D01*
X204703930Y-82092568D01*
X203695550Y-82092568D01*
X203571068Y-82104828D01*
X203451370Y-82141138D01*
X203341056Y-82200103D01*
X203244365Y-82279455D01*
X203198980Y-82334757D01*
X203153595Y-82279455D01*
X203056904Y-82200103D01*
X202946590Y-82141138D01*
X202826892Y-82104828D01*
X202702410Y-82092568D01*
X201694030Y-82092568D01*
X201569548Y-82104828D01*
X201449850Y-82141138D01*
X201339536Y-82200103D01*
X201242845Y-82279455D01*
X201200000Y-82331662D01*
X201157155Y-82279455D01*
X201060464Y-82200103D01*
X200950150Y-82141138D01*
X200830452Y-82104828D01*
X200705970Y-82092568D01*
X199697590Y-82092568D01*
X199573108Y-82104828D01*
X199453410Y-82141138D01*
X199343096Y-82200103D01*
X199246405Y-82279455D01*
X199201020Y-82334757D01*
X199155635Y-82279455D01*
X199058944Y-82200103D01*
X198948630Y-82141138D01*
X198828932Y-82104828D01*
X198704450Y-82092568D01*
X197696070Y-82092568D01*
X197571588Y-82104828D01*
X197451890Y-82141138D01*
X197341576Y-82200103D01*
X197244885Y-82279455D01*
X197165533Y-82376146D01*
X197106568Y-82486460D01*
X197070258Y-82606158D01*
X197057998Y-82730640D01*
X189760000Y-82730640D01*
X189760000Y-77882278D01*
X189819096Y-77279567D01*
X189984762Y-76730856D01*
X190253846Y-76224783D01*
X190616110Y-75780604D01*
X191057742Y-75415255D01*
X191561929Y-75142641D01*
X192109471Y-74973148D01*
X192710289Y-74910000D01*
X194447094Y-74910000D01*
X194426688Y-74977268D01*
G37*
X194426688Y-74977268D02*
X194414428Y-75101750D01*
X194414428Y-77313131D01*
X194285724Y-77002413D01*
X194089899Y-76709339D01*
X193840661Y-76460101D01*
X193547587Y-76264276D01*
X193221942Y-76129389D01*
X192876238Y-76060624D01*
X192523762Y-76060624D01*
X192178058Y-76129389D01*
X191852413Y-76264276D01*
X191559339Y-76460101D01*
X191310101Y-76709339D01*
X191114276Y-77002413D01*
X190979389Y-77328058D01*
X190910624Y-77673762D01*
X190910624Y-78026238D01*
X190979389Y-78371942D01*
X191114276Y-78697587D01*
X191310101Y-78990661D01*
X191559339Y-79239899D01*
X191852413Y-79435724D01*
X192178058Y-79570611D01*
X192523762Y-79639376D01*
X192876238Y-79639376D01*
X193221942Y-79570611D01*
X193547587Y-79435724D01*
X193840661Y-79239899D01*
X194089899Y-78990661D01*
X194285724Y-78697587D01*
X194420611Y-78371942D01*
X194440554Y-78271682D01*
X194462998Y-78345670D01*
X194521963Y-78455984D01*
X194601315Y-78552675D01*
X194698006Y-78632027D01*
X194808320Y-78690992D01*
X194928018Y-78727302D01*
X195052500Y-78739562D01*
X196552500Y-78739562D01*
X196676982Y-78727302D01*
X196796680Y-78690992D01*
X196906994Y-78632027D01*
X197003685Y-78552675D01*
X197083037Y-78455984D01*
X197142002Y-78345670D01*
X197178312Y-78225972D01*
X197190572Y-78101490D01*
X197190572Y-75101750D01*
X197178312Y-74977268D01*
X197157906Y-74910000D01*
X205242094Y-74910000D01*
X205221688Y-74977268D01*
X205209428Y-75101750D01*
X205209428Y-78101490D01*
X205221688Y-78225972D01*
X205257998Y-78345670D01*
X205316963Y-78455984D01*
X205396315Y-78552675D01*
X205493006Y-78632027D01*
X205603320Y-78690992D01*
X205723018Y-78727302D01*
X205847500Y-78739562D01*
X207347500Y-78739562D01*
X207471982Y-78727302D01*
X207591680Y-78690992D01*
X207701994Y-78632027D01*
X207798685Y-78552675D01*
X207878037Y-78455984D01*
X207937002Y-78345670D01*
X207973312Y-78225972D01*
X207985572Y-78101490D01*
X207985572Y-75101750D01*
X207973312Y-74977268D01*
X207952906Y-74910000D01*
X209397094Y-74910000D01*
X209376688Y-74977268D01*
X209364428Y-75101750D01*
X209364428Y-78101490D01*
X209376688Y-78225972D01*
X209412998Y-78345670D01*
X209471963Y-78455984D01*
X209551315Y-78552675D01*
X209648006Y-78632027D01*
X209758320Y-78690992D01*
X209878018Y-78727302D01*
X210002500Y-78739562D01*
X211502500Y-78739562D01*
X211626982Y-78727302D01*
X211746680Y-78690992D01*
X211856994Y-78632027D01*
X211953685Y-78552675D01*
X212033037Y-78455984D01*
X212092002Y-78345670D01*
X212128312Y-78225972D01*
X212140572Y-78101490D01*
X212140572Y-75101750D01*
X212128312Y-74977268D01*
X212107906Y-74910000D01*
X220192094Y-74910000D01*
X220171688Y-74977268D01*
X220159428Y-75101750D01*
X220159428Y-78101490D01*
X220171688Y-78225972D01*
X220207998Y-78345670D01*
X220266963Y-78455984D01*
X220346315Y-78552675D01*
X220443006Y-78632027D01*
X220553320Y-78690992D01*
X220673018Y-78727302D01*
X220797500Y-78739562D01*
X222297500Y-78739562D01*
X222421982Y-78727302D01*
X222541680Y-78690992D01*
X222651994Y-78632027D01*
X222748685Y-78552675D01*
X222828037Y-78455984D01*
X222887002Y-78345670D01*
X222923312Y-78225972D01*
X222932267Y-78135045D01*
X222979389Y-78371942D01*
X223114276Y-78697587D01*
X223310101Y-78990661D01*
X223559339Y-79239899D01*
X223852413Y-79435724D01*
X224178058Y-79570611D01*
X224523762Y-79639376D01*
X224876238Y-79639376D01*
X225221942Y-79570611D01*
X225547587Y-79435724D01*
X225840661Y-79239899D01*
X226089899Y-78990661D01*
X226285724Y-78697587D01*
X226420611Y-78371942D01*
X226489376Y-78026238D01*
X226489376Y-77673762D01*
X226420611Y-77328058D01*
X226285724Y-77002413D01*
X226089899Y-76709339D01*
X225840661Y-76460101D01*
X225547587Y-76264276D01*
X225221942Y-76129389D01*
X224876238Y-76060624D01*
X224523762Y-76060624D01*
X224178058Y-76129389D01*
X223852413Y-76264276D01*
X223559339Y-76460101D01*
X223310101Y-76709339D01*
X223114276Y-77002413D01*
X222979389Y-77328058D01*
X222935572Y-77548340D01*
X222935572Y-75101750D01*
X222923312Y-74977268D01*
X222902906Y-74910000D01*
X224667722Y-74910000D01*
X225270433Y-74969096D01*
X225819144Y-75134762D01*
X226325217Y-75403846D01*
X226769396Y-75766110D01*
X227134745Y-76207742D01*
X227407359Y-76711929D01*
X227576852Y-77259471D01*
X227640000Y-77860289D01*
X227640001Y-109817712D01*
X227580904Y-110420433D01*
X227415239Y-110969141D01*
X227146152Y-111475220D01*
X226783893Y-111919394D01*
X226342258Y-112284746D01*
X225838067Y-112557361D01*
X225290533Y-112726851D01*
X224689711Y-112790000D01*
X192732278Y-112790000D01*
X192129567Y-112730904D01*
X191580859Y-112565239D01*
X191074780Y-112296152D01*
X190630606Y-111933893D01*
X190265254Y-111492258D01*
X189992639Y-110988067D01*
X189823149Y-110440533D01*
X189760000Y-109839711D01*
X189760000Y-109673762D01*
X190910624Y-109673762D01*
X190910624Y-110026238D01*
X190979389Y-110371942D01*
X191114276Y-110697587D01*
X191310101Y-110990661D01*
X191559339Y-111239899D01*
X191852413Y-111435724D01*
X192178058Y-111570611D01*
X192523762Y-111639376D01*
X192876238Y-111639376D01*
X193221942Y-111570611D01*
X193547587Y-111435724D01*
X193840661Y-111239899D01*
X194089899Y-110990661D01*
X194285724Y-110697587D01*
X194420611Y-110371942D01*
X194489376Y-110026238D01*
X194489376Y-109673762D01*
X194469731Y-109575000D01*
X195761928Y-109575000D01*
X195774188Y-109699482D01*
X195810498Y-109819180D01*
X195869463Y-109929494D01*
X195948815Y-110026185D01*
X196045506Y-110105537D01*
X196155820Y-110164502D01*
X196275518Y-110200812D01*
X196400000Y-110213072D01*
X197314250Y-110210000D01*
X197473000Y-110051250D01*
X197473000Y-108502000D01*
X195923750Y-108502000D01*
X195765000Y-108660750D01*
X195761928Y-109575000D01*
X194469731Y-109575000D01*
X194420611Y-109328058D01*
X194285724Y-109002413D01*
X194089899Y-108709339D01*
X193840661Y-108460101D01*
X193547587Y-108264276D01*
X193221942Y-108129389D01*
X192876238Y-108060624D01*
X192523762Y-108060624D01*
X192178058Y-108129389D01*
X191852413Y-108264276D01*
X191559339Y-108460101D01*
X191310101Y-108709339D01*
X191114276Y-109002413D01*
X190979389Y-109328058D01*
X190910624Y-109673762D01*
X189760000Y-109673762D01*
X189760000Y-107175000D01*
X195761928Y-107175000D01*
X195765000Y-108089250D01*
X195923750Y-108248000D01*
X197473000Y-108248000D01*
X197473000Y-106698750D01*
X197727000Y-106698750D01*
X197727000Y-108248000D01*
X197747000Y-108248000D01*
X197747000Y-108502000D01*
X197727000Y-108502000D01*
X197727000Y-110051250D01*
X197885750Y-110210000D01*
X198800000Y-110213072D01*
X198924482Y-110200812D01*
X199044180Y-110164502D01*
X199154494Y-110105537D01*
X199251185Y-110026185D01*
X199330537Y-109929494D01*
X199389502Y-109819180D01*
X199425812Y-109699482D01*
X199438072Y-109575000D01*
X199436659Y-109154426D01*
X199473844Y-109244199D01*
X199674662Y-109544744D01*
X199930256Y-109800338D01*
X200230801Y-110001156D01*
X200564750Y-110139482D01*
X200919268Y-110210000D01*
X201280732Y-110210000D01*
X201635250Y-110139482D01*
X201969199Y-110001156D01*
X202269744Y-109800338D01*
X202495082Y-109575000D01*
X204536928Y-109575000D01*
X204549188Y-109699482D01*
X204585498Y-109819180D01*
X204644463Y-109929494D01*
X204723815Y-110026185D01*
X204820506Y-110105537D01*
X204930820Y-110164502D01*
X205050518Y-110200812D01*
X205175000Y-110213072D01*
X206089250Y-110210000D01*
X206248000Y-110051250D01*
X206248000Y-108502000D01*
X204698750Y-108502000D01*
X204540000Y-108660750D01*
X204536928Y-109575000D01*
X202495082Y-109575000D01*
X202525338Y-109544744D01*
X202726156Y-109244199D01*
X202864482Y-108910250D01*
X202935000Y-108555732D01*
X202935000Y-108194268D01*
X202903384Y-108035326D01*
X203763710Y-107175000D01*
X204536928Y-107175000D01*
X204540000Y-108089250D01*
X204698750Y-108248000D01*
X206248000Y-108248000D01*
X206248000Y-106698750D01*
X206089250Y-106540000D01*
X205175000Y-106536928D01*
X205050518Y-106549188D01*
X204930820Y-106585498D01*
X204820506Y-106644463D01*
X204723815Y-106723815D01*
X204644463Y-106820506D01*
X204585498Y-106930820D01*
X204549188Y-107050518D01*
X204536928Y-107175000D01*
X203763710Y-107175000D01*
X204978711Y-105960000D01*
X208246290Y-105960000D01*
X208840000Y-106553711D01*
X208840000Y-106859629D01*
X208705256Y-106949662D01*
X208449662Y-107205256D01*
X208248844Y-107505801D01*
X208211659Y-107595574D01*
X208213072Y-107175000D01*
X208200812Y-107050518D01*
X208164502Y-106930820D01*
X208105537Y-106820506D01*
X208026185Y-106723815D01*
X207929494Y-106644463D01*
X207819180Y-106585498D01*
X207699482Y-106549188D01*
X207575000Y-106536928D01*
X206660750Y-106540000D01*
X206502000Y-106698750D01*
X206502000Y-108248000D01*
X206522000Y-108248000D01*
X206522000Y-108502000D01*
X206502000Y-108502000D01*
X206502000Y-110051250D01*
X206660750Y-110210000D01*
X207575000Y-110213072D01*
X207699482Y-110200812D01*
X207819180Y-110164502D01*
X207929494Y-110105537D01*
X208026185Y-110026185D01*
X208105537Y-109929494D01*
X208164502Y-109819180D01*
X208200812Y-109699482D01*
X208213072Y-109575000D01*
X208211659Y-109154426D01*
X208248844Y-109244199D01*
X208449662Y-109544744D01*
X208705256Y-109800338D01*
X209005801Y-110001156D01*
X209339750Y-110139482D01*
X209694268Y-110210000D01*
X210055732Y-110210000D01*
X210410250Y-110139482D01*
X210744199Y-110001156D01*
X211044744Y-109800338D01*
X211270082Y-109575000D01*
X213311928Y-109575000D01*
X213324188Y-109699482D01*
X213360498Y-109819180D01*
X213419463Y-109929494D01*
X213498815Y-110026185D01*
X213595506Y-110105537D01*
X213705820Y-110164502D01*
X213825518Y-110200812D01*
X213950000Y-110213072D01*
X214864250Y-110210000D01*
X215023000Y-110051250D01*
X215023000Y-108502000D01*
X213473750Y-108502000D01*
X213315000Y-108660750D01*
X213311928Y-109575000D01*
X211270082Y-109575000D01*
X211300338Y-109544744D01*
X211501156Y-109244199D01*
X211639482Y-108910250D01*
X211710000Y-108555732D01*
X211710000Y-108194268D01*
X211639482Y-107839750D01*
X211501156Y-107505801D01*
X211300338Y-107205256D01*
X211270082Y-107175000D01*
X213311928Y-107175000D01*
X213315000Y-108089250D01*
X213473750Y-108248000D01*
X215023000Y-108248000D01*
X215023000Y-106698750D01*
X214864250Y-106540000D01*
X213950000Y-106536928D01*
X213825518Y-106549188D01*
X213705820Y-106585498D01*
X213595506Y-106644463D01*
X213498815Y-106723815D01*
X213419463Y-106820506D01*
X213360498Y-106930820D01*
X213324188Y-107050518D01*
X213311928Y-107175000D01*
X211270082Y-107175000D01*
X211044744Y-106949662D01*
X210910000Y-106859629D01*
X210910000Y-106553710D01*
X211453711Y-106010000D01*
X216518346Y-106010000D01*
X217469132Y-106960786D01*
X217224662Y-107205256D01*
X217023844Y-107505801D01*
X216986659Y-107595574D01*
X216988072Y-107175000D01*
X216975812Y-107050518D01*
X216939502Y-106930820D01*
X216880537Y-106820506D01*
X216801185Y-106723815D01*
X216704494Y-106644463D01*
X216594180Y-106585498D01*
X216474482Y-106549188D01*
X216350000Y-106536928D01*
X215435750Y-106540000D01*
X215277000Y-106698750D01*
X215277000Y-108248000D01*
X215297000Y-108248000D01*
X215297000Y-108502000D01*
X215277000Y-108502000D01*
X215277000Y-110051250D01*
X215435750Y-110210000D01*
X216350000Y-110213072D01*
X216474482Y-110200812D01*
X216594180Y-110164502D01*
X216704494Y-110105537D01*
X216801185Y-110026185D01*
X216880537Y-109929494D01*
X216939502Y-109819180D01*
X216975812Y-109699482D01*
X216988072Y-109575000D01*
X216986659Y-109154426D01*
X217023844Y-109244199D01*
X217224662Y-109544744D01*
X217480256Y-109800338D01*
X217780801Y-110001156D01*
X218114750Y-110139482D01*
X218469268Y-110210000D01*
X218830732Y-110210000D01*
X219185250Y-110139482D01*
X219519199Y-110001156D01*
X219819744Y-109800338D01*
X219946320Y-109673762D01*
X222910624Y-109673762D01*
X222910624Y-110026238D01*
X222979389Y-110371942D01*
X223114276Y-110697587D01*
X223310101Y-110990661D01*
X223559339Y-111239899D01*
X223852413Y-111435724D01*
X224178058Y-111570611D01*
X224523762Y-111639376D01*
X224876238Y-111639376D01*
X225221942Y-111570611D01*
X225547587Y-111435724D01*
X225840661Y-111239899D01*
X226089899Y-110990661D01*
X226285724Y-110697587D01*
X226420611Y-110371942D01*
X226489376Y-110026238D01*
X226489376Y-109673762D01*
X226420611Y-109328058D01*
X226285724Y-109002413D01*
X226089899Y-108709339D01*
X225840661Y-108460101D01*
X225547587Y-108264276D01*
X225221942Y-108129389D01*
X224876238Y-108060624D01*
X224523762Y-108060624D01*
X224178058Y-108129389D01*
X223852413Y-108264276D01*
X223559339Y-108460101D01*
X223310101Y-108709339D01*
X223114276Y-109002413D01*
X222979389Y-109328058D01*
X222910624Y-109673762D01*
X219946320Y-109673762D01*
X220075338Y-109544744D01*
X220165371Y-109410000D01*
X221699172Y-109410000D01*
X221750000Y-109415006D01*
X221800828Y-109410000D01*
X221800838Y-109410000D01*
X221952895Y-109395024D01*
X222147993Y-109335841D01*
X222327797Y-109239734D01*
X222485396Y-109110396D01*
X222517807Y-109070903D01*
X226720908Y-104867803D01*
X226760396Y-104835396D01*
X226812338Y-104772105D01*
X226889734Y-104677798D01*
X226943607Y-104577007D01*
X226985841Y-104497993D01*
X227045024Y-104302895D01*
X227060000Y-104150838D01*
X227060000Y-104150836D01*
X227065007Y-104100000D01*
X227060000Y-104049165D01*
X227060000Y-101100107D01*
X227203475Y-100956632D01*
X227365990Y-100713411D01*
X227477932Y-100443158D01*
X227535000Y-100156260D01*
X227535000Y-99863740D01*
X227477932Y-99576842D01*
X227365990Y-99306589D01*
X227203475Y-99063368D01*
X226996632Y-98856525D01*
X226822240Y-98740000D01*
X226996632Y-98623475D01*
X227203475Y-98416632D01*
X227365990Y-98173411D01*
X227477932Y-97903158D01*
X227535000Y-97616260D01*
X227535000Y-97323740D01*
X227477932Y-97036842D01*
X227365990Y-96766589D01*
X227203475Y-96523368D01*
X226996632Y-96316525D01*
X226822240Y-96200000D01*
X226996632Y-96083475D01*
X227203475Y-95876632D01*
X227365990Y-95633411D01*
X227477932Y-95363158D01*
X227535000Y-95076260D01*
X227535000Y-94783740D01*
X227477932Y-94496842D01*
X227365990Y-94226589D01*
X227203475Y-93983368D01*
X226996632Y-93776525D01*
X226822240Y-93660000D01*
X226996632Y-93543475D01*
X227203475Y-93336632D01*
X227365990Y-93093411D01*
X227477932Y-92823158D01*
X227535000Y-92536260D01*
X227535000Y-92243740D01*
X227477932Y-91956842D01*
X227365990Y-91686589D01*
X227203475Y-91443368D01*
X227071620Y-91311513D01*
X227144180Y-91289502D01*
X227254494Y-91230537D01*
X227351185Y-91151185D01*
X227430537Y-91054494D01*
X227489502Y-90944180D01*
X227525812Y-90824482D01*
X227538072Y-90700000D01*
X227535000Y-90135750D01*
X227376250Y-89977000D01*
X226177000Y-89977000D01*
X226177000Y-89997000D01*
X225923000Y-89997000D01*
X225923000Y-89977000D01*
X224723750Y-89977000D01*
X224565000Y-90135750D01*
X224561928Y-90700000D01*
X224574188Y-90824482D01*
X224610498Y-90944180D01*
X224669463Y-91054494D01*
X224748815Y-91151185D01*
X224845506Y-91230537D01*
X224955820Y-91289502D01*
X225028380Y-91311513D01*
X224896525Y-91443368D01*
X224734010Y-91686589D01*
X224622068Y-91956842D01*
X224565000Y-92243740D01*
X224565000Y-92536260D01*
X224622068Y-92823158D01*
X224734010Y-93093411D01*
X224896525Y-93336632D01*
X225103368Y-93543475D01*
X225277760Y-93660000D01*
X225103368Y-93776525D01*
X224896525Y-93983368D01*
X224734010Y-94226589D01*
X224622068Y-94496842D01*
X224565000Y-94783740D01*
X224565000Y-95076260D01*
X224622068Y-95363158D01*
X224734010Y-95633411D01*
X224896525Y-95876632D01*
X225103368Y-96083475D01*
X225277760Y-96200000D01*
X225103368Y-96316525D01*
X224994893Y-96425000D01*
X223438711Y-96425000D01*
X221160000Y-94146290D01*
X221160000Y-93867187D01*
X221216383Y-93731067D01*
X221260000Y-93511788D01*
X221260000Y-93288212D01*
X221216383Y-93068933D01*
X221130824Y-92862376D01*
X221006612Y-92676480D01*
X220848520Y-92518388D01*
X220662624Y-92394176D01*
X220456067Y-92308617D01*
X220236788Y-92265000D01*
X220013212Y-92265000D01*
X219793933Y-92308617D01*
X219587376Y-92394176D01*
X219401480Y-92518388D01*
X219243388Y-92676480D01*
X219119176Y-92862376D01*
X219033617Y-93068933D01*
X218990000Y-93288212D01*
X218990000Y-93511788D01*
X219033617Y-93731067D01*
X219090000Y-93867188D01*
X219090001Y-94524163D01*
X219084994Y-94575000D01*
X219104977Y-94777895D01*
X219164160Y-94972993D01*
X219260266Y-95152797D01*
X219357197Y-95270907D01*
X219389605Y-95310396D01*
X219429092Y-95342802D01*
X222242197Y-98155908D01*
X222274604Y-98195396D01*
X222314092Y-98227803D01*
X222432202Y-98324734D01*
X222528309Y-98376104D01*
X222612007Y-98420841D01*
X222807105Y-98480024D01*
X222959162Y-98495000D01*
X222959171Y-98495000D01*
X223009999Y-98500006D01*
X223060827Y-98495000D01*
X224974893Y-98495000D01*
X225103368Y-98623475D01*
X225277760Y-98740000D01*
X225103368Y-98856525D01*
X224896525Y-99063368D01*
X224734010Y-99306589D01*
X224622068Y-99576842D01*
X224565000Y-99863740D01*
X224565000Y-100156260D01*
X224622068Y-100443158D01*
X224734010Y-100713411D01*
X224896525Y-100956632D01*
X224990001Y-101050108D01*
X224990000Y-103671289D01*
X221321290Y-107340000D01*
X220165371Y-107340000D01*
X220075338Y-107205256D01*
X219819744Y-106949662D01*
X219685000Y-106859629D01*
X219685000Y-106728779D01*
X219690007Y-106677944D01*
X219680902Y-106585498D01*
X219670024Y-106475049D01*
X219610841Y-106279951D01*
X219610841Y-106279950D01*
X219514734Y-106100146D01*
X219417803Y-105982036D01*
X219385396Y-105942548D01*
X219345908Y-105910141D01*
X217714863Y-104279097D01*
X217682452Y-104239604D01*
X217524853Y-104110266D01*
X217345049Y-104014159D01*
X217149951Y-103954976D01*
X216997894Y-103940000D01*
X216997884Y-103940000D01*
X216947056Y-103934994D01*
X216896228Y-103940000D01*
X211075835Y-103940000D01*
X211025000Y-103934993D01*
X210974165Y-103940000D01*
X210974162Y-103940000D01*
X210822105Y-103954976D01*
X210705547Y-103990334D01*
X210627006Y-104014159D01*
X210447202Y-104110266D01*
X210390017Y-104157197D01*
X210289604Y-104239604D01*
X210257197Y-104279092D01*
X209875000Y-104661289D01*
X209442807Y-104229097D01*
X209410396Y-104189604D01*
X209252797Y-104060266D01*
X209072993Y-103964159D01*
X208877895Y-103904976D01*
X208725838Y-103890000D01*
X208725828Y-103890000D01*
X208675000Y-103884994D01*
X208624172Y-103890000D01*
X204600835Y-103890000D01*
X204550000Y-103884993D01*
X204499165Y-103890000D01*
X204499162Y-103890000D01*
X204347105Y-103904976D01*
X204152007Y-103964159D01*
X204103037Y-103990334D01*
X203972202Y-104060266D01*
X203854092Y-104157197D01*
X203814604Y-104189604D01*
X203782197Y-104229092D01*
X201439674Y-106571616D01*
X201280732Y-106540000D01*
X200919268Y-106540000D01*
X200564750Y-106610518D01*
X200230801Y-106748844D01*
X199930256Y-106949662D01*
X199674662Y-107205256D01*
X199473844Y-107505801D01*
X199436659Y-107595574D01*
X199438072Y-107175000D01*
X199425812Y-107050518D01*
X199389502Y-106930820D01*
X199330537Y-106820506D01*
X199251185Y-106723815D01*
X199154494Y-106644463D01*
X199044180Y-106585498D01*
X198924482Y-106549188D01*
X198800000Y-106536928D01*
X197885750Y-106540000D01*
X197727000Y-106698750D01*
X197473000Y-106698750D01*
X197314250Y-106540000D01*
X196400000Y-106536928D01*
X196275518Y-106549188D01*
X196155820Y-106585498D01*
X196045506Y-106644463D01*
X195948815Y-106723815D01*
X195869463Y-106820506D01*
X195810498Y-106930820D01*
X195774188Y-107050518D01*
X195761928Y-107175000D01*
X189760000Y-107175000D01*
X189760000Y-103386653D01*
X198937952Y-103386653D01*
X199093962Y-103702214D01*
X199468745Y-103893020D01*
X199873551Y-104007044D01*
X200292824Y-104039902D01*
X200710451Y-103990334D01*
X201110383Y-103860243D01*
X201406038Y-103702214D01*
X201562048Y-103386653D01*
X200250000Y-102074605D01*
X198937952Y-103386653D01*
X189760000Y-103386653D01*
X189760000Y-101937824D01*
X198105098Y-101937824D01*
X198154666Y-102355451D01*
X198284757Y-102755383D01*
X198442786Y-103051038D01*
X198758347Y-103207048D01*
X200070395Y-101895000D01*
X200429605Y-101895000D01*
X201741653Y-103207048D01*
X202057214Y-103051038D01*
X202248020Y-102676255D01*
X202362044Y-102271449D01*
X202394902Y-101852176D01*
X202345334Y-101434549D01*
X202215243Y-101034617D01*
X202057214Y-100738962D01*
X201741653Y-100582952D01*
X200429605Y-101895000D01*
X200070395Y-101895000D01*
X198758347Y-100582952D01*
X198442786Y-100738962D01*
X198251980Y-101113745D01*
X198137956Y-101518551D01*
X198105098Y-101937824D01*
X189760000Y-101937824D01*
X189760000Y-100403347D01*
X198937952Y-100403347D01*
X200250000Y-101715395D01*
X201562048Y-100403347D01*
X201406038Y-100087786D01*
X201031255Y-99896980D01*
X200686423Y-99799849D01*
X202164756Y-99799849D01*
X202233310Y-100041268D01*
X202484556Y-100159668D01*
X202754071Y-100226778D01*
X203031502Y-100240018D01*
X203306184Y-100198879D01*
X203567562Y-100104943D01*
X203686690Y-100041268D01*
X203755244Y-99799849D01*
X202960000Y-99004605D01*
X202164756Y-99799849D01*
X200686423Y-99799849D01*
X200626449Y-99782956D01*
X200207176Y-99750098D01*
X199789549Y-99799666D01*
X199389617Y-99929757D01*
X199093962Y-100087786D01*
X198937952Y-100403347D01*
X189760000Y-100403347D01*
X189760000Y-98896502D01*
X201544982Y-98896502D01*
X201586121Y-99171184D01*
X201680057Y-99432562D01*
X201743732Y-99551690D01*
X201985151Y-99620244D01*
X202780395Y-98825000D01*
X203139605Y-98825000D01*
X203934849Y-99620244D01*
X204176268Y-99551690D01*
X204294668Y-99300444D01*
X204361778Y-99030929D01*
X204375018Y-98753498D01*
X204333879Y-98478816D01*
X204239943Y-98217438D01*
X204176268Y-98098310D01*
X203934849Y-98029756D01*
X203139605Y-98825000D01*
X202780395Y-98825000D01*
X201985151Y-98029756D01*
X201743732Y-98098310D01*
X201625332Y-98349556D01*
X201558222Y-98619071D01*
X201544982Y-98896502D01*
X189760000Y-98896502D01*
X189760000Y-91686127D01*
X201550000Y-91686127D01*
X201550000Y-91963873D01*
X201604186Y-92236282D01*
X201710475Y-92492885D01*
X201864782Y-92723822D01*
X202061178Y-92920218D01*
X202292115Y-93074525D01*
X202293262Y-93075000D01*
X202292115Y-93075475D01*
X202061178Y-93229782D01*
X201864782Y-93426178D01*
X201710475Y-93657115D01*
X201604186Y-93913718D01*
X201550000Y-94186127D01*
X201550000Y-94463873D01*
X201604186Y-94736282D01*
X201710475Y-94992885D01*
X201864782Y-95223822D01*
X201965960Y-95325000D01*
X201864782Y-95426178D01*
X201710475Y-95657115D01*
X201604186Y-95913718D01*
X201550000Y-96186127D01*
X201550000Y-96463873D01*
X201604186Y-96736282D01*
X201710475Y-96992885D01*
X201864782Y-97223822D01*
X202061178Y-97420218D01*
X202292115Y-97574525D01*
X202295040Y-97575737D01*
X202233310Y-97608732D01*
X202164756Y-97850151D01*
X202960000Y-98645395D01*
X203755244Y-97850151D01*
X203686690Y-97608732D01*
X203620550Y-97577563D01*
X203627885Y-97574525D01*
X203858822Y-97420218D01*
X204055218Y-97223822D01*
X204209525Y-96992885D01*
X204315814Y-96736282D01*
X204370000Y-96463873D01*
X204370000Y-96186127D01*
X204315814Y-95913718D01*
X204209525Y-95657115D01*
X204055218Y-95426178D01*
X203954040Y-95325000D01*
X204055218Y-95223822D01*
X204209525Y-94992885D01*
X204315814Y-94736282D01*
X204364604Y-94491000D01*
X207159428Y-94491000D01*
X207159428Y-95761000D01*
X207171688Y-95885482D01*
X207207998Y-96005180D01*
X207266963Y-96115494D01*
X207346315Y-96212185D01*
X207443006Y-96291537D01*
X207553320Y-96350502D01*
X207673018Y-96386812D01*
X207797500Y-96399072D01*
X209702500Y-96399072D01*
X209826982Y-96386812D01*
X209946680Y-96350502D01*
X210056994Y-96291537D01*
X210153685Y-96212185D01*
X210195691Y-96161000D01*
X211154309Y-96161000D01*
X211196315Y-96212185D01*
X211293006Y-96291537D01*
X211403320Y-96350502D01*
X211523018Y-96386812D01*
X211647500Y-96399072D01*
X213552500Y-96399072D01*
X213676982Y-96386812D01*
X213796680Y-96350502D01*
X213906994Y-96291537D01*
X214003685Y-96212185D01*
X214083037Y-96115494D01*
X214142002Y-96005180D01*
X214178312Y-95885482D01*
X214190572Y-95761000D01*
X214190572Y-94491000D01*
X214178312Y-94366518D01*
X214142002Y-94246820D01*
X214083037Y-94136506D01*
X214003685Y-94039815D01*
X213906994Y-93960463D01*
X213796680Y-93901498D01*
X213676982Y-93865188D01*
X213552500Y-93852928D01*
X211647500Y-93852928D01*
X211523018Y-93865188D01*
X211403320Y-93901498D01*
X211293006Y-93960463D01*
X211196315Y-94039815D01*
X211154309Y-94091000D01*
X210195691Y-94091000D01*
X210153685Y-94039815D01*
X210056994Y-93960463D01*
X209946680Y-93901498D01*
X209826982Y-93865188D01*
X209702500Y-93852928D01*
X207797500Y-93852928D01*
X207673018Y-93865188D01*
X207553320Y-93901498D01*
X207443006Y-93960463D01*
X207346315Y-94039815D01*
X207266963Y-94136506D01*
X207207998Y-94246820D01*
X207171688Y-94366518D01*
X207159428Y-94491000D01*
X204364604Y-94491000D01*
X204370000Y-94463873D01*
X204370000Y-94186127D01*
X204315814Y-93913718D01*
X204209525Y-93657115D01*
X204055218Y-93426178D01*
X203858822Y-93229782D01*
X203627885Y-93075475D01*
X203626738Y-93075000D01*
X203627885Y-93074525D01*
X203858822Y-92920218D01*
X203919040Y-92860000D01*
X207305129Y-92860000D01*
X207346315Y-92910185D01*
X207443006Y-92989537D01*
X207553320Y-93048502D01*
X207673018Y-93084812D01*
X207797500Y-93097072D01*
X209702500Y-93097072D01*
X209826982Y-93084812D01*
X209946680Y-93048502D01*
X210056994Y-92989537D01*
X210153685Y-92910185D01*
X210233037Y-92813494D01*
X210292002Y-92703180D01*
X210328312Y-92583482D01*
X210340572Y-92459000D01*
X211009428Y-92459000D01*
X211021688Y-92583482D01*
X211057998Y-92703180D01*
X211116963Y-92813494D01*
X211196315Y-92910185D01*
X211293006Y-92989537D01*
X211403320Y-93048502D01*
X211523018Y-93084812D01*
X211647500Y-93097072D01*
X212314250Y-93094000D01*
X212473000Y-92935250D01*
X212473000Y-91951000D01*
X212727000Y-91951000D01*
X212727000Y-92935250D01*
X212885750Y-93094000D01*
X213552500Y-93097072D01*
X213676982Y-93084812D01*
X213796680Y-93048502D01*
X213906994Y-92989537D01*
X214003685Y-92910185D01*
X214083037Y-92813494D01*
X214142002Y-92703180D01*
X214178312Y-92583482D01*
X214190572Y-92459000D01*
X214187500Y-92109750D01*
X214028750Y-91951000D01*
X212727000Y-91951000D01*
X212473000Y-91951000D01*
X211171250Y-91951000D01*
X211012500Y-92109750D01*
X211009428Y-92459000D01*
X210340572Y-92459000D01*
X210340572Y-91189000D01*
X211009428Y-91189000D01*
X211012500Y-91538250D01*
X211171250Y-91697000D01*
X212473000Y-91697000D01*
X212473000Y-90712750D01*
X212727000Y-90712750D01*
X212727000Y-91697000D01*
X214028750Y-91697000D01*
X214187500Y-91538250D01*
X214190572Y-91189000D01*
X214178312Y-91064518D01*
X214142002Y-90944820D01*
X214083037Y-90834506D01*
X214003685Y-90737815D01*
X213906994Y-90658463D01*
X213796680Y-90599498D01*
X213676982Y-90563188D01*
X213552500Y-90550928D01*
X212885750Y-90554000D01*
X212727000Y-90712750D01*
X212473000Y-90712750D01*
X212314250Y-90554000D01*
X211647500Y-90550928D01*
X211523018Y-90563188D01*
X211403320Y-90599498D01*
X211293006Y-90658463D01*
X211196315Y-90737815D01*
X211116963Y-90834506D01*
X211057998Y-90944820D01*
X211021688Y-91064518D01*
X211009428Y-91189000D01*
X210340572Y-91189000D01*
X210328312Y-91064518D01*
X210292002Y-90944820D01*
X210233037Y-90834506D01*
X210153685Y-90737815D01*
X210056994Y-90658463D01*
X209946680Y-90599498D01*
X209826982Y-90563188D01*
X209702500Y-90550928D01*
X207797500Y-90550928D01*
X207673018Y-90563188D01*
X207553320Y-90599498D01*
X207443006Y-90658463D01*
X207346315Y-90737815D01*
X207303488Y-90790000D01*
X203919040Y-90790000D01*
X203858822Y-90729782D01*
X203627885Y-90575475D01*
X203371282Y-90469186D01*
X203098873Y-90415000D01*
X202821127Y-90415000D01*
X202548718Y-90469186D01*
X202292115Y-90575475D01*
X202061178Y-90729782D01*
X201864782Y-90926178D01*
X201710475Y-91157115D01*
X201604186Y-91413718D01*
X201550000Y-91686127D01*
X189760000Y-91686127D01*
X189760000Y-88544721D01*
X198115000Y-88544721D01*
X198115000Y-88965279D01*
X198197047Y-89377756D01*
X198357988Y-89766302D01*
X198591637Y-90115983D01*
X198889017Y-90413363D01*
X199238698Y-90647012D01*
X199627244Y-90807953D01*
X200039721Y-90890000D01*
X200460279Y-90890000D01*
X200872756Y-90807953D01*
X201261302Y-90647012D01*
X201610983Y-90413363D01*
X201908363Y-90115983D01*
X202142012Y-89766302D01*
X202302953Y-89377756D01*
X202378093Y-89000000D01*
X224561928Y-89000000D01*
X224565000Y-89564250D01*
X224723750Y-89723000D01*
X225923000Y-89723000D01*
X225923000Y-88523750D01*
X226177000Y-88523750D01*
X226177000Y-89723000D01*
X227376250Y-89723000D01*
X227535000Y-89564250D01*
X227538072Y-89000000D01*
X227525812Y-88875518D01*
X227489502Y-88755820D01*
X227430537Y-88645506D01*
X227351185Y-88548815D01*
X227254494Y-88469463D01*
X227144180Y-88410498D01*
X227024482Y-88374188D01*
X226900000Y-88361928D01*
X226335750Y-88365000D01*
X226177000Y-88523750D01*
X225923000Y-88523750D01*
X225764250Y-88365000D01*
X225200000Y-88361928D01*
X225075518Y-88374188D01*
X224955820Y-88410498D01*
X224845506Y-88469463D01*
X224748815Y-88548815D01*
X224669463Y-88645506D01*
X224610498Y-88755820D01*
X224574188Y-88875518D01*
X224561928Y-89000000D01*
X202378093Y-89000000D01*
X202385000Y-88965279D01*
X202385000Y-88544721D01*
X202302953Y-88132244D01*
X202142012Y-87743698D01*
X201908363Y-87394017D01*
X201610983Y-87096637D01*
X201261302Y-86862988D01*
X200872756Y-86702047D01*
X200460279Y-86620000D01*
X200039721Y-86620000D01*
X199627244Y-86702047D01*
X199238698Y-86862988D01*
X198889017Y-87096637D01*
X198591637Y-87394017D01*
X198357988Y-87743698D01*
X198197047Y-88132244D01*
X198115000Y-88544721D01*
X189760000Y-88544721D01*
X189760000Y-82730640D01*
X197057998Y-82730640D01*
X197057998Y-85468760D01*
X197070258Y-85593242D01*
X197106568Y-85712940D01*
X197165533Y-85823254D01*
X197244885Y-85919945D01*
X197341576Y-85999297D01*
X197451890Y-86058262D01*
X197571588Y-86094572D01*
X197696070Y-86106832D01*
X198704450Y-86106832D01*
X198828932Y-86094572D01*
X198948630Y-86058262D01*
X199058944Y-85999297D01*
X199155635Y-85919945D01*
X199201020Y-85864643D01*
X199246405Y-85919945D01*
X199343096Y-85999297D01*
X199453410Y-86058262D01*
X199573108Y-86094572D01*
X199697590Y-86106832D01*
X200705970Y-86106832D01*
X200830452Y-86094572D01*
X200950150Y-86058262D01*
X201060464Y-85999297D01*
X201157155Y-85919945D01*
X201200000Y-85867738D01*
X201242845Y-85919945D01*
X201339536Y-85999297D01*
X201449850Y-86058262D01*
X201569548Y-86094572D01*
X201694030Y-86106832D01*
X202702410Y-86106832D01*
X202826892Y-86094572D01*
X202946590Y-86058262D01*
X203056904Y-85999297D01*
X203153595Y-85919945D01*
X203198980Y-85864643D01*
X203244365Y-85919945D01*
X203341056Y-85999297D01*
X203451370Y-86058262D01*
X203571068Y-86094572D01*
X203695550Y-86106832D01*
X204703930Y-86106832D01*
X204828412Y-86094572D01*
X204948110Y-86058262D01*
X205058424Y-85999297D01*
X205155115Y-85919945D01*
X205234467Y-85823254D01*
X205293432Y-85712940D01*
X205329742Y-85593242D01*
X205342002Y-85468760D01*
X205342002Y-82730640D01*
X212007998Y-82730640D01*
X212007998Y-85468760D01*
X212020258Y-85593242D01*
X212056568Y-85712940D01*
X212115533Y-85823254D01*
X212194885Y-85919945D01*
X212291576Y-85999297D01*
X212401890Y-86058262D01*
X212521588Y-86094572D01*
X212646070Y-86106832D01*
X213654450Y-86106832D01*
X213778932Y-86094572D01*
X213898630Y-86058262D01*
X214008944Y-85999297D01*
X214105635Y-85919945D01*
X214151020Y-85864643D01*
X214196405Y-85919945D01*
X214293096Y-85999297D01*
X214403410Y-86058262D01*
X214523108Y-86094572D01*
X214647590Y-86106832D01*
X215655970Y-86106832D01*
X215780452Y-86094572D01*
X215900150Y-86058262D01*
X216010464Y-85999297D01*
X216107155Y-85919945D01*
X216150000Y-85867738D01*
X216192845Y-85919945D01*
X216289536Y-85999297D01*
X216399850Y-86058262D01*
X216519548Y-86094572D01*
X216644030Y-86106832D01*
X217652410Y-86106832D01*
X217776892Y-86094572D01*
X217896590Y-86058262D01*
X218006904Y-85999297D01*
X218103595Y-85919945D01*
X218148980Y-85864643D01*
X218194365Y-85919945D01*
X218291056Y-85999297D01*
X218401370Y-86058262D01*
X218521068Y-86094572D01*
X218645550Y-86106832D01*
X219653930Y-86106832D01*
X219778412Y-86094572D01*
X219898110Y-86058262D01*
X220008424Y-85999297D01*
X220105115Y-85919945D01*
X220184467Y-85823254D01*
X220243432Y-85712940D01*
X220279742Y-85593242D01*
X220292002Y-85468760D01*
X220292002Y-82730640D01*
X220279742Y-82606158D01*
X220243432Y-82486460D01*
X220184467Y-82376146D01*
X220105115Y-82279455D01*
X220008424Y-82200103D01*
X219898110Y-82141138D01*
X219778412Y-82104828D01*
X219653930Y-82092568D01*
X218645550Y-82092568D01*
X218521068Y-82104828D01*
X218401370Y-82141138D01*
X218291056Y-82200103D01*
X218194365Y-82279455D01*
X218148980Y-82334757D01*
X218103595Y-82279455D01*
X218006904Y-82200103D01*
X217896590Y-82141138D01*
X217776892Y-82104828D01*
X217652410Y-82092568D01*
X216644030Y-82092568D01*
X216519548Y-82104828D01*
X216399850Y-82141138D01*
X216289536Y-82200103D01*
X216192845Y-82279455D01*
X216150000Y-82331662D01*
X216107155Y-82279455D01*
X216010464Y-82200103D01*
X215900150Y-82141138D01*
X215780452Y-82104828D01*
X215655970Y-82092568D01*
X214647590Y-82092568D01*
X214523108Y-82104828D01*
X214403410Y-82141138D01*
X214293096Y-82200103D01*
X214196405Y-82279455D01*
X214151020Y-82334757D01*
X214105635Y-82279455D01*
X214008944Y-82200103D01*
X213898630Y-82141138D01*
X213778932Y-82104828D01*
X213654450Y-82092568D01*
X212646070Y-82092568D01*
X212521588Y-82104828D01*
X212401890Y-82141138D01*
X212291576Y-82200103D01*
X212194885Y-82279455D01*
X212115533Y-82376146D01*
X212056568Y-82486460D01*
X212020258Y-82606158D01*
X212007998Y-82730640D01*
X205342002Y-82730640D01*
X205329742Y-82606158D01*
X205293432Y-82486460D01*
X205234467Y-82376146D01*
X205155115Y-82279455D01*
X205058424Y-82200103D01*
X204948110Y-82141138D01*
X204828412Y-82104828D01*
X204703930Y-82092568D01*
X203695550Y-82092568D01*
X203571068Y-82104828D01*
X203451370Y-82141138D01*
X203341056Y-82200103D01*
X203244365Y-82279455D01*
X203198980Y-82334757D01*
X203153595Y-82279455D01*
X203056904Y-82200103D01*
X202946590Y-82141138D01*
X202826892Y-82104828D01*
X202702410Y-82092568D01*
X201694030Y-82092568D01*
X201569548Y-82104828D01*
X201449850Y-82141138D01*
X201339536Y-82200103D01*
X201242845Y-82279455D01*
X201200000Y-82331662D01*
X201157155Y-82279455D01*
X201060464Y-82200103D01*
X200950150Y-82141138D01*
X200830452Y-82104828D01*
X200705970Y-82092568D01*
X199697590Y-82092568D01*
X199573108Y-82104828D01*
X199453410Y-82141138D01*
X199343096Y-82200103D01*
X199246405Y-82279455D01*
X199201020Y-82334757D01*
X199155635Y-82279455D01*
X199058944Y-82200103D01*
X198948630Y-82141138D01*
X198828932Y-82104828D01*
X198704450Y-82092568D01*
X197696070Y-82092568D01*
X197571588Y-82104828D01*
X197451890Y-82141138D01*
X197341576Y-82200103D01*
X197244885Y-82279455D01*
X197165533Y-82376146D01*
X197106568Y-82486460D01*
X197070258Y-82606158D01*
X197057998Y-82730640D01*
X189760000Y-82730640D01*
X189760000Y-77882278D01*
X189819096Y-77279567D01*
X189984762Y-76730856D01*
X190253846Y-76224783D01*
X190616110Y-75780604D01*
X191057742Y-75415255D01*
X191561929Y-75142641D01*
X192109471Y-74973148D01*
X192710289Y-74910000D01*
X194447094Y-74910000D01*
X194426688Y-74977268D01*
M02*
