%TF.GenerationSoftware,KiCad,Pcbnew,(5.1.5-0-10_14)*%
%TF.CreationDate,2020-09-17T17:23:34+02:00*%
%TF.ProjectId,power-routing,706f7765-722d-4726-9f75-74696e672e6b,rev?*%
%TF.SameCoordinates,Original*%
%TF.FileFunction,Copper,L2,Bot*%
%TF.FilePolarity,Positive*%
%FSLAX46Y46*%
G04 Gerber Fmt 4.6, Leading zero omitted, Abs format (unit mm)*
G04 Created by KiCad (PCBNEW (5.1.5-0-10_14)) date 2020-09-17 17:23:34*
%MOMM*%
%LPD*%
G04 APERTURE LIST*
%ADD10C,0.050000*%
%ADD11C,3.000000*%
%ADD12C,1.550000*%
%ADD13C,2.400000*%
%ADD14R,2.400000X2.400000*%
%ADD15O,1.700000X1.700000*%
%ADD16R,1.700000X1.700000*%
%ADD17C,1.000000*%
%ADD18C,0.800000*%
G04 APERTURE END LIST*
D10*
X189100000Y-109850000D02*
X189100000Y-77850000D01*
X224700000Y-113450000D02*
X192700000Y-113450000D01*
X228300000Y-77850000D02*
X228300000Y-109850000D01*
X192700000Y-74250000D02*
X224700000Y-74250000D01*
X189100000Y-77850000D02*
G75*
G02X192700000Y-74250000I3600000J0D01*
G01*
X192700000Y-113450000D02*
G75*
G02X189100000Y-109850000I0J3600000D01*
G01*
X228300000Y-109850000D02*
G75*
G02X224700000Y-113450000I-3600000J0D01*
G01*
X224700000Y-74250000D02*
G75*
G02X228300000Y-77850000I0J-3600000D01*
G01*
X225818034Y-109850000D02*
G75*
G03X225818034Y-109850000I-1118034J0D01*
G01*
X193818034Y-109850000D02*
G75*
G03X193818034Y-109850000I-1118034J0D01*
G01*
X225818034Y-77850000D02*
G75*
G03X225818034Y-77850000I-1118034J0D01*
G01*
X193818034Y-77850000D02*
G75*
G03X193818034Y-77850000I-1118034J0D01*
G01*
D11*
X200250000Y-88755000D03*
X200250000Y-101895000D03*
D12*
X202960000Y-98825000D03*
X202960000Y-96325000D03*
X202960000Y-94325000D03*
X202960000Y-91825000D03*
D13*
X218650000Y-108375000D03*
D14*
X215150000Y-108375000D03*
D13*
X209875000Y-108375000D03*
D14*
X206375000Y-108375000D03*
D13*
X201100000Y-108375000D03*
D14*
X197600000Y-108375000D03*
D15*
X226050000Y-100010000D03*
X226050000Y-97470000D03*
X226050000Y-94930000D03*
X226050000Y-92390000D03*
D16*
X226050000Y-89850000D03*
D17*
X220125000Y-93400000D03*
D18*
X203734999Y-97099999D02*
X220600001Y-97099999D01*
X202960000Y-96325000D02*
X203734999Y-97099999D01*
X222780000Y-94920000D02*
X226025000Y-94920000D01*
X220600001Y-97099999D02*
X222780000Y-94920000D01*
X204056015Y-94325000D02*
X204981015Y-93400000D01*
X202960000Y-94325000D02*
X204056015Y-94325000D01*
X204981015Y-93400000D02*
X220125000Y-93400000D01*
X202960000Y-91825000D02*
X195850000Y-98935000D01*
X195850000Y-103125000D02*
X197975000Y-105250000D01*
X195850000Y-98935000D02*
X195850000Y-103125000D01*
X197975000Y-105250000D02*
X200575000Y-105250000D01*
X201100000Y-105775000D02*
X201100000Y-108375000D01*
X200575000Y-105250000D02*
X201100000Y-105775000D01*
M02*
